<!-- Generated by IcoMoon.io -->
<svg version="1.1" xmlns="http://www.w3.org/2000/svg" width="27" height="32" viewBox="0 0 27 32">
<path d="M0 32v-2.642h2.642v-9.101h-1.321c-0.734 0-1.321-0.587-1.321-1.321s0.587-1.321 1.321-1.321h4.55v-4.11h-0.44c-0.734 0-1.321-0.587-1.321-1.321s0.587-1.321 1.321-1.321h0.528l0.029-0.235c0.587-3.494 3.376-6.018 6.958-6.341l0.264-0.029v-4.257h2.642v1.761h-2.055v2.495h0.264c3.699 0.176 6.606 2.73 7.222 6.341l0.029 0.235h0.235c0.705 0 1.292 0.617 1.292 1.321 0 0.675-0.528 1.262-1.204 1.321l-0.206 0.059v4.081h4.55c0.734 0 1.321 0.587 1.321 1.321s-0.587 1.321-1.321 1.321h-1.321v9.101h2.642v2.642h-27.303zM18.202 29.358h3.817v-9.101h-3.817v9.101zM11.743 29.358h3.816v-9.101h-3.816v9.101zM5.284 29.358h3.816v-9.101h-3.816v9.101zM14.972 17.615h3.817v-4.11h-3.816v4.11zM8.514 17.615h3.816v-4.11h-3.816v4.11zM13.651 6.899c-2.378 0-4.316 1.409-4.932 3.582l-0.088 0.382h10.070l-0.117-0.382c-0.616-2.172-2.554-3.582-4.932-3.582z"></path>
</svg>
