<!-- Generated by IcoMoon.io -->
<svg version="1.1" xmlns="http://www.w3.org/2000/svg" width="32" height="32" viewBox="0 0 32 32">
<path d="M8.218 2.288c0.419 0.419 0.419 0.806 0.064 1.16-0.419 0.419-0.806 0.419-1.225 0s-0.419-0.806 0-1.225c0.354-0.354 0.773-0.354 1.16 0.064zM3.48 7.057c0.419 0.419 0.419 0.806 0 1.225-0.387 0.387-0.773 0.354-1.16-0.064-0.419-0.419-0.419-0.806-0.064-1.16 0.387-0.419 0.806-0.419 1.225 0zM16.016 0c0.451 0 0.838 0.161 1.16 0.516 0.322 0.322 0.516 0.741 0.516 1.16s-0.161 0.838-0.516 1.16c-0.322 0.322-0.741 0.516-1.16 0.516s-0.838-0.161-1.192-0.483-0.516-0.741-0.516-1.16 0.193-0.87 0.516-1.192 0.741-0.516 1.192-0.516zM11.247 4.769c0.451 0 0.838 0.161 1.16 0.516 0.322 0.322 0.516 0.741 0.516 1.16 0 0.451-0.161 0.838-0.516 1.16-0.322 0.322-0.741 0.516-1.192 0.516-0.451 0.032-0.87-0.129-1.192-0.483-0.322-0.322-0.483-0.741-0.483-1.192 0.032-0.451 0.193-0.87 0.516-1.192s0.741-0.483 1.192-0.483zM6.477 9.539c0.451-0.032 0.87 0.129 1.192 0.483 0.322 0.322 0.483 0.741 0.483 1.192-0.032 0.451-0.193 0.87-0.516 1.192s-0.741 0.516-1.16 0.516c-0.451 0-0.838-0.161-1.16-0.516-0.322-0.322-0.516-0.741-0.516-1.16s0.161-0.838 0.516-1.16 0.677-0.516 1.16-0.548zM1.676 14.34c0.451 0 0.838 0.161 1.16 0.516s0.516 0.741 0.516 1.16-0.161 0.838-0.516 1.16c-0.322 0.322-0.741 0.516-1.16 0.516s-0.838-0.161-1.16-0.516c-0.322-0.322-0.516-0.741-0.516-1.16 0-0.451 0.161-0.838 0.516-1.16s0.709-0.516 1.16-0.516zM16.016 8.669c0.709 0 1.321 0.258 1.805 0.741s0.741 1.096 0.741 1.805c0 0.709-0.258 1.321-0.741 1.805s-1.096 0.741-1.805 0.741c-0.709 0-1.321-0.258-1.805-0.741s-0.741-1.096-0.741-1.805c0-0.709 0.258-1.321 0.741-1.805s1.096-0.741 1.805-0.741zM11.182 13.503c0.709 0 1.321 0.258 1.805 0.741s0.741 1.096 0.741 1.805c0 0.709-0.258 1.321-0.741 1.805s-1.096 0.741-1.805 0.741c-0.709 0-1.321-0.258-1.805-0.741s-0.741-1.096-0.741-1.805c0-0.709 0.258-1.321 0.741-1.805 0.516-0.516 1.096-0.741 1.805-0.741zM20.785 8.153c-0.451-0.032-0.87-0.193-1.192-0.516s-0.516-0.741-0.516-1.16c0-0.451 0.161-0.838 0.516-1.16s0.741-0.516 1.16-0.516 0.838 0.161 1.16 0.516c0.322 0.322 0.516 0.741 0.516 1.192 0.032 0.451-0.129 0.87-0.483 1.192-0.29 0.29-0.677 0.451-1.16 0.451zM6.445 19.078c0.451 0 0.838 0.161 1.16 0.516 0.322 0.322 0.516 0.741 0.516 1.192 0.032 0.451-0.129 0.87-0.483 1.192-0.322 0.322-0.741 0.483-1.192 0.483-0.451-0.032-0.87-0.193-1.192-0.516s-0.516-0.741-0.516-1.16 0.161-0.838 0.516-1.16 0.741-0.548 1.192-0.548zM23.718 3.48c-0.387-0.387-0.354-0.773 0.064-1.16 0.419-0.419 0.806-0.419 1.16-0.064 0.419 0.419 0.419 0.806 0 1.225-0.387 0.387-0.806 0.387-1.225 0zM3.48 23.718c0.419 0.419 0.419 0.806 0 1.225s-0.806 0.419-1.225 0c-0.387-0.387-0.354-0.773 0.064-1.16 0.387-0.419 0.773-0.419 1.16-0.064zM20.818 13.503c0.709 0 1.321 0.258 1.805 0.741s0.741 1.096 0.741 1.805c0 0.709-0.258 1.321-0.741 1.805s-1.096 0.741-1.805 0.741c-0.709 0-1.321-0.258-1.805-0.741s-0.741-1.096-0.741-1.805c0-0.709 0.258-1.321 0.741-1.805 0.483-0.516 1.096-0.741 1.805-0.741zM16.016 18.304c0.709 0 1.321 0.258 1.805 0.741s0.741 1.096 0.741 1.805c0 0.709-0.258 1.321-0.741 1.805s-1.096 0.741-1.805 0.741c-0.709 0-1.321-0.258-1.805-0.741s-0.741-1.096-0.741-1.805c0-0.709 0.258-1.321 0.741-1.805 0.483-0.516 1.096-0.741 1.805-0.741zM25.587 12.922c-0.451 0-0.838-0.161-1.16-0.516-0.322-0.322-0.516-0.741-0.516-1.192-0.032-0.451 0.129-0.87 0.483-1.192s0.741-0.483 1.192-0.483c0.451 0.032 0.87 0.193 1.192 0.516s0.516 0.741 0.516 1.16-0.161 0.838-0.516 1.16c-0.354 0.387-0.741 0.548-1.192 0.548zM11.214 23.879c0.451 0.032 0.87 0.193 1.192 0.516s0.516 0.741 0.516 1.16-0.161 0.87-0.483 1.192c-0.322 0.322-0.741 0.516-1.16 0.516s-0.838-0.161-1.16-0.516c-0.322-0.322-0.516-0.741-0.516-1.192-0.032-0.451 0.129-0.87 0.483-1.192s0.677-0.516 1.128-0.483zM28.552 8.282c-0.419-0.419-0.419-0.806 0-1.225s0.806-0.419 1.225 0c0.387 0.387 0.354 0.773-0.064 1.16-0.419 0.419-0.806 0.451-1.16 0.064zM8.282 28.552c0.387 0.387 0.354 0.773-0.064 1.16-0.419 0.419-0.806 0.419-1.16 0.064-0.419-0.419-0.419-0.806 0-1.225s0.806-0.419 1.225 0zM30.324 14.34c0.451 0 0.838 0.161 1.16 0.516s0.516 0.741 0.516 1.16-0.161 0.838-0.516 1.16c-0.322 0.322-0.741 0.516-1.16 0.516-0.451 0-0.838-0.161-1.16-0.516-0.322-0.322-0.516-0.741-0.516-1.16s0.161-0.838 0.516-1.16 0.709-0.516 1.16-0.516zM25.587 19.078c0.451 0 0.838 0.161 1.16 0.516 0.322 0.322 0.516 0.741 0.516 1.16s-0.161 0.838-0.516 1.192c-0.322 0.322-0.741 0.516-1.192 0.516-0.451 0.032-0.87-0.129-1.192-0.483s-0.516-0.709-0.483-1.192c0.032-0.451 0.193-0.87 0.516-1.192 0.354-0.354 0.741-0.516 1.192-0.516zM20.785 23.879c0.451-0.032 0.87 0.129 1.192 0.483s0.483 0.741 0.483 1.192c-0.032 0.451-0.193 0.87-0.516 1.192s-0.741 0.516-1.16 0.516-0.838-0.161-1.16-0.516c-0.322-0.322-0.516-0.741-0.516-1.16s0.161-0.838 0.516-1.16c0.29-0.354 0.709-0.548 1.16-0.548zM16.016 28.649c0.451 0 0.838 0.161 1.16 0.516 0.322 0.322 0.516 0.741 0.516 1.16 0 0.451-0.161 0.838-0.516 1.16-0.322 0.322-0.741 0.516-1.16 0.516s-0.838-0.161-1.16-0.516-0.516-0.741-0.516-1.16c0-0.451 0.161-0.838 0.516-1.16s0.709-0.516 1.16-0.516zM28.552 24.975c-0.419-0.419-0.419-0.806 0-1.225 0.387-0.387 0.773-0.354 1.16 0.064 0.419 0.419 0.419 0.806 0.064 1.16-0.419 0.387-0.838 0.387-1.225 0zM24.975 28.552c0.419 0.419 0.419 0.806 0 1.225-0.387 0.387-0.773 0.354-1.16-0.064-0.419-0.419-0.419-0.806-0.064-1.16 0.387-0.419 0.806-0.419 1.225 0z"></path>
</svg>
