<!-- Generated by IcoMoon.io -->
<svg version="1.1" xmlns="http://www.w3.org/2000/svg" width="32" height="32" viewBox="0 0 32 32">
<path d="M23.581 27.625c-5.483 3.596-12.764 2.846-17.408-1.798-5.154-5.124-5.453-13.423-0.719-18.906 0.389-0.449 0.33-1.109-0.12-1.468-0.449-0.389-1.109-0.33-1.468 0.12-5.453 6.292-5.094 15.85 0.809 21.753 3.086 3.086 7.191 4.674 11.326 4.674 3.056 0 6.142-0.899 8.839-2.697l0.509 0.689 0.39-2.667-2.667-0.39 0.509 0.689zM29.273 7.131l0.689-0.509-2.667-0.389-0.39 2.667 0.689-0.509c3.386 5.184 2.936 11.985-1.139 16.689-0.39 0.449-0.33 1.109 0.090 1.468 0.21 0.18 0.449 0.27 0.689 0.27 0.3 0 0.599-0.12 0.779-0.36 4.764-5.423 5.243-13.333 1.258-19.326zM8.389 4.345c5.184-3.356 11.985-2.906 16.659 1.139 0.21 0.18 0.449 0.27 0.689 0.27 0.3 0 0.599-0.12 0.779-0.36 0.39-0.449 0.33-1.109-0.12-1.468-5.393-4.734-13.303-5.213-19.236-1.258l-0.509-0.689-0.389 2.667 2.667 0.389-0.539-0.689zM26.637 16.749c0.479 0 0.869-0.39 0.869-0.869s-0.39-0.869-0.869-0.869h-3.476c-0.090-0.509-0.24-1.198-0.479-1.768l1.768-0.989c0.419-0.24 0.569-0.779 0.33-1.198s-0.779-0.569-1.198-0.33l-1.768 0.989c-0.36-0.479-0.779-0.899-1.258-1.288l1.049-1.738c0.24-0.419 0.12-0.959-0.3-1.199s-0.959-0.12-1.198 0.3l-1.079 1.738c-0.569-0.27-1.169-0.419-1.888-0.509v-4.554c0-0.449-0.36-0.839-0.839-0.839s-0.839 0.36-0.839 0.839v6.142l-4.135-3.745c-0.33-0.33-0.869-0.33-1.198 0s-0.36 0.869 0 1.228l5.363 4.734v2.307h-2.097l-4.944-5.393c-0.33-0.33-0.899-0.33-1.228 0s-0.33 0.869 0 1.198l3.955 4.165h-6.322c-0.449 0-0.839 0.36-0.839 0.839 0 0.449 0.36 0.839 0.839 0.839h6.352l-3.955 4.165c-0.33 0.33-0.33 0.869 0 1.198v0c0.33 0.33 0.869 0.36 1.228 0l4.914-5.363h2.097v2.517l-5.363 4.524c-0.33 0.33-0.33 0.899 0 1.228s0.869 0.33 1.198 0l4.165-3.566v5.933c0 0.449 0.36 0.839 0.839 0.839s0.839-0.36 0.839-0.839v-4.704c0.719-0.090 1.228-0.24 1.768-0.449l1.019 1.768c0.24 0.419 0.779 0.569 1.198 0.33s0.569-0.779 0.33-1.198l-0.989-1.768c0.479-0.36 0.899-0.779 1.288-1.258l1.738 1.049c0.419 0.24 0.959 0.12 1.198-0.3s0.12-0.959-0.3-1.198l-1.738-1.049c0.27-0.599 0.449-1.139 0.539-1.888h3.416zM17.169 21.213v-10.697c2.577 0.419 4.584 2.667 4.584 5.363s-2.008 4.944-4.584 5.333z"></path>
</svg>
