<!-- Generated by IcoMoon.io -->
<svg version="1.1" xmlns="http://www.w3.org/2000/svg" width="28" height="32" viewBox="0 0 28 32">
<path d="M20.633 0v32h7.733v-32h-7.733zM25.8 29.434h-2.566v-16.535h2.566v16.535zM24.481 5.808c-1.069 0-1.924-0.855-1.924-1.924s0.855-1.924 1.924-1.924 1.924 0.855 1.924 1.924-0.855 1.924-1.924 1.924zM10.298 32h7.733v-32h-7.733v32zM15.465 29.434h-2.566v-16.535h2.566v16.535zM14.183 1.924c1.069 0 1.924 0.855 1.924 1.924s-0.855 1.924-1.924 1.924-1.924-0.855-1.924-1.924 0.855-1.924 1.924-1.924zM0 32h7.733v-32h-7.733v32zM5.167 29.434h-2.601v-16.535h2.566v16.535zM3.884 1.924c1.069 0 1.924 0.855 1.924 1.924s-0.855 1.924-1.924 1.924-1.924-0.855-1.924-1.924 0.855-1.924 1.924-1.924z"></path>
</svg>
