<!-- Generated by IcoMoon.io -->
<svg version="1.1" xmlns="http://www.w3.org/2000/svg" width="33" height="32" viewBox="0 0 33 32">
<path d="M32.447 7.409c-0.543-0.543-1.277-0.83-2.076-0.83h-3.066v-3.673c0-0.83-0.319-1.533-0.926-2.108-0.575-0.511-1.277-0.798-2.076-0.798h-21.397c-0.798 0-1.533 0.287-2.076 0.83s-0.83 1.277-0.83 2.076v23.122c0 0.511 0.319 0.99 0.798 1.182 0.16 0.064 0.319 0.096 0.479 0.096 0.319 0 0.671-0.128 0.894-0.383l6.196-6.259h1.693v1.852c0 0.798 0.287 1.501 0.83 2.076 0.543 0.543 1.277 0.83 2.076 0.83h11.912l6.228 6.196c0.256 0.256 0.575 0.383 0.894 0.383 0.16 0 0.319-0.032 0.479-0.096 0.479-0.192 0.798-0.671 0.798-1.182v-21.238c0-0.798-0.287-1.533-0.83-2.076zM12.615 18.108v-8.687c0-0.128 0.032-0.16 0.096-0.224 0.096-0.096 0.192-0.128 0.319-0.128h11.721v8.687c0 0.128-0.032 0.16-0.096 0.224-0.096 0.096-0.192 0.128-0.319 0.128h-11.721zM7.856 18.108c-0.351 0-0.671 0.128-0.894 0.383l-4.407 4.439v-20.024c0-0.16 0.032-0.224 0.096-0.256 0.032-0.064 0.096-0.096 0.256-0.096h21.429c0.128 0 0.224 0.032 0.319 0.128 0.064 0.064 0.096 0.096 0.096 0.224v3.609h-11.721c-0.766 0-1.501 0.287-2.076 0.798-0.607 0.543-0.926 1.277-0.926 2.108v8.687h-2.172zM30.723 27.625l-4.407-4.375c-0.256-0.256-0.575-0.383-0.894-0.383h-12.423c-0.16 0-0.224-0.032-0.255-0.096-0.064-0.064-0.096-0.096-0.096-0.256v-1.852h11.689c0.766 0 1.501-0.287 2.076-0.798 0.607-0.543 0.926-1.277 0.926-2.108v-8.623h3.066c0.16 0 0.224 0.032 0.256 0.096 0.064 0.064 0.096 0.096 0.096 0.255v18.14z"></path>
</svg>
