<!-- Generated by IcoMoon.io -->
<svg version="1.1" xmlns="http://www.w3.org/2000/svg" width="32" height="32" viewBox="0 0 32 32">
<path d="M13.558 23.327l2.466-2.466 2.466 2.466-2.466 2.466-2.466-2.466zM9.871 19.664l2.466-2.466 2.466 2.466-2.466 2.466-2.466-2.466zM6.229 16.002l2.466-2.466 2.466 2.466-2.466 2.466-2.466-2.466zM13.556 16l2.466-2.466 2.466 2.466-2.466 2.466-2.466-2.466zM9.869 12.337l2.466-2.466 2.466 2.466-2.466 2.466-2.466-2.466zM13.554 8.673l2.466-2.466 2.466 2.466-2.466 2.466-2.466-2.466zM17.198 19.663l2.466-2.466 2.466 2.466-2.466 2.466-2.466-2.466zM17.196 12.336l2.466-2.466 2.466 2.466-2.466 2.466-2.466-2.466zM20.883 15.998l2.466-2.466 2.466 2.466-2.466 2.466-2.466-2.466zM32 16c0-0.64-0.224-1.184-0.64-1.632l-4.416-4.384 0.832-0.832c0.448-0.448 0.448-1.184 0-1.664-0.448-0.448-1.184-0.448-1.664 0l-0.832 0.832-1.6-1.6 0.832-0.832c0.448-0.448 0.448-1.184 0-1.664-0.448-0.448-1.184-0.448-1.664 0l-0.832 0.832-4.384-4.416c-0.448-0.416-0.992-0.64-1.632-0.64s-1.184 0.224-1.632 0.64l-4.384 4.416-0.832-0.832c-0.448-0.448-1.184-0.448-1.664 0-0.448 0.448-0.448 1.184 0 1.664l0.832 0.832-1.6 1.6-0.832-0.832c-0.448-0.448-1.184-0.448-1.664 0-0.448 0.448-0.448 1.184 0 1.664l0.832 0.832-4.416 4.384c-0.448 0.448-0.64 0.96-0.64 1.632 0 0.64 0.224 1.184 0.64 1.632l4.384 4.384-0.832 0.832c-0.448 0.448-0.448 1.184 0 1.664 0.448 0.448 1.184 0.448 1.664 0l0.864-0.832 1.6 1.6-0.832 0.832c-0.448 0.448-0.448 1.184 0 1.664 0.448 0.448 1.184 0.448 1.664 0l0.832-0.832 4.384 4.416c0.448 0.448 0.96 0.64 1.632 0.64 0.64 0 1.184-0.224 1.632-0.64l4.384-4.384 0.832 0.832c0.448 0.448 1.184 0.448 1.664 0 0.448-0.448 0.448-1.184 0-1.664l-0.832-0.864 1.6-1.6 0.832 0.832c0.448 0.448 1.184 0.448 1.664 0 0.448-0.448 0.448-1.184 0-1.664l-0.832-0.832 4.416-4.384c0.416-0.448 0.64-0.992 0.64-1.632zM16 29.728l-13.728-13.728 13.728-13.728 13.728 13.728-13.728 13.728z"></path>
</svg>
