<!-- Generated by IcoMoon.io -->
<svg version="1.1" xmlns="http://www.w3.org/2000/svg" width="32" height="32" viewBox="0 0 32 32">
<path d="M16.016 2.311l3.988 3.988 1.741-1.741-3.798-3.798c-0.538-0.506-1.171-0.76-1.931-0.76-0.791 0-1.424 0.253-1.931 0.76l-3.798 3.798 1.741 1.741 3.988-3.988zM16.016 29.689l-3.988-3.988-1.741 1.741 3.798 3.798c0.506 0.506 1.139 0.76 1.931 0.76 0.76 0 1.424-0.253 1.931-0.76l3.798-3.798-1.741-1.741-3.988 3.988zM31.24 14.085l-3.798-3.798-1.741 1.741 3.988 3.988-3.988 3.988 1.741 1.741 3.798-3.798c0.506-0.506 0.76-1.139 0.76-1.931s-0.253-1.424-0.76-1.931zM8.356 10.097c0.918 0.696 1.519 1.203 1.519 1.203 2.089 1.741 3.387 2.849 5.697 3.134 2.406 0.317 4.495-0.285 6.33-1.741 1.583-1.266 2.564-2.88 2.944-4.843l1.203 0.158-2.089-3.545-2.754 2.944 1.171 0.158c-0.317 1.266-1.013 2.342-2.057 3.165-1.329 1.044-2.817 1.488-4.526 1.266-1.614-0.222-3.925-2.184-3.925-2.184-0.57-0.538-1.108-1.044-1.678-1.519 0.032-0.475-0.095-0.981-0.411-1.361-0.665-0.886-1.931-1.045-2.785-0.38-0.886 0.665-1.045 1.931-0.38 2.785 0.443 0.57 1.108 0.823 1.741 0.76zM22.473 14.212l0.601 0.76c-2.311 1.678-4.906 2.374-7.786 1.962-2.469-0.348-3.956-1.013-6.489-3.323-0.791-0.918-2.564-2.311-4.115-3.197l-0.095-0.095-3.798 3.798c-0.538 0.475-0.791 1.108-0.791 1.899 0 0.76 0.253 1.393 0.76 1.899l2.469 2.469c0 0 0 0 0.032 0 0.158 0.127 0.317 0.285 0.506 0.411 2.627 1.804 6.172 4.241 11.521 3.862l0.158 1.298 2.849-2.849-3.45-2.089 0.127 0.981c-4.115 0.253-7.565-1.867-9.939-3.482-1.678-1.298-2.532-2.722-2.532-2.722l2.342-2.342c0.918 0.443 1.266 1.013 2.184 1.931 1.678 1.646 4.305 3.545 8.008 4.020 3.577 0.475 6.868-0.253 9.685-2.342l0.823 1.013 0.95-3.925-4.020 0.063z"></path>
</svg>
