<!-- Generated by IcoMoon.io -->
<svg version="1.1" xmlns="http://www.w3.org/2000/svg" width="24" height="32" viewBox="0 0 24 32">
<path d="M23.142 0.85c-0.556-0.556-1.307-0.85-2.125-0.85h-12.323v0.033c-0.065-0.033-0.131-0.033-0.196-0.033-0.36 0-0.686 0.131-0.915 0.392l-0.033-0.033-7.126 7.126c-0.033 0.033-0.065 0.033-0.065 0.065v0 0c-0.196 0.229-0.327 0.523-0.327 0.883 0 0.065 0 0.131 0.033 0.196v20.364c0 0.817 0.294 1.536 0.85 2.125 0.556 0.556 1.307 0.85 2.125 0.85l18.010 0.033c0.85 0 1.569-0.327 2.157-0.948 0.523-0.588 0.817-1.307 0.817-2.125v-25.953c-0.033-0.817-0.327-1.569-0.883-2.125zM7.191 4.38v2.288c0 0.131-0.033 0.229-0.131 0.327-0.065 0.065-0.098 0.098-0.229 0.098h-2.386l2.746-2.713zM21.377 7.551c0 0.033 0 0.065 0 0.065v21.344c0 0.131-0.033 0.229-0.131 0.327-0.065 0.065-0.098 0.098-0.229 0.098l-18.043-0.033c-0.163 0-0.229-0.033-0.261-0.098-0.065-0.065-0.098-0.098-0.098-0.262v-19.252h4.184c0.85 0 1.569-0.327 2.157-0.948 0.523-0.588 0.817-1.307 0.817-2.125v-4.053h11.211c0.163 0 0.229 0.033 0.262 0.098 0.065 0.065 0.098 0.098 0.098 0.261v4.576zM18.795 15.461h-13.565c-0.556 0-1.013 0.458-1.013 1.013s0.458 1.013 1.013 1.013h13.565c0.556 0 1.013-0.458 1.013-1.013s-0.458-1.013-1.013-1.013zM18.795 18.729h-13.565c-0.556 0-1.013 0.458-1.013 1.013s0.458 1.013 1.013 1.013h13.565c0.556 0 1.013-0.458 1.013-1.013s-0.458-1.013-1.013-1.013zM18.795 21.998h-13.565c-0.556 0-1.013 0.458-1.013 1.013s0.458 1.013 1.013 1.013h13.565c0.556 0 1.013-0.458 1.013-1.013s-0.458-1.013-1.013-1.013zM18.795 25.267h-13.565c-0.556 0-1.013 0.458-1.013 1.013s0.458 1.013 1.013 1.013h13.565c0.556 0 1.013-0.458 1.013-1.013s-0.458-1.013-1.013-1.013z"></path>
</svg>
