<!-- Generated by IcoMoon.io -->
<svg version="1.1" xmlns="http://www.w3.org/2000/svg" width="32" height="32" viewBox="0 0 32 32">
<path d="M15.97 4.315c-3.236 0-5.963 1.139-8.27 3.446-2.277 2.277-3.446 5.034-3.446 8.27s1.139 5.963 3.446 8.27c2.277 2.277 5.034 3.446 8.27 3.446 3.206 0 5.963-1.139 8.27-3.446 2.277-2.277 3.446-5.034 3.446-8.27 0-3.206-1.139-5.963-3.446-8.27-2.277-2.307-5.034-3.446-8.27-3.446zM14.831 25.288c-2.307-0.3-4.255-1.318-5.843-3.086s-2.397-3.835-2.397-6.202c0-0.659 0.090-1.348 0.27-2.097l5.603 5.603v1.169c0 0.629 0.24 1.169 0.719 1.648s1.019 0.719 1.648 0.719v2.247zM22.891 22.322c-0.39-1.109-1.139-1.648-2.247-1.648h-1.139v-3.506c0-0.33-0.12-0.599-0.33-0.809s-0.479-0.33-0.809-0.33h-7.041v-2.367h2.307c0.33 0 0.599-0.12 0.839-0.33s0.36-0.479 0.36-0.809v-2.367h2.307c0.629 0 1.169-0.24 1.648-0.689s0.719-0.989 0.719-1.618v-0.479c1.768 0.689 3.176 1.828 4.255 3.416s1.618 3.326 1.618 5.273c0 2.397-0.839 4.494-2.487 6.262zM23.581 27.625c-5.483 3.596-12.764 2.846-17.408-1.798-5.154-5.124-5.453-13.423-0.719-18.906 0.389-0.449 0.33-1.109-0.12-1.468-0.449-0.389-1.109-0.33-1.468 0.12-5.453 6.292-5.094 15.85 0.809 21.753 3.086 3.086 7.191 4.674 11.326 4.674 3.056 0 6.142-0.899 8.839-2.697l0.509 0.689 0.39-2.667-2.667-0.39 0.509 0.689zM29.273 7.131l0.689-0.509-2.667-0.389-0.39 2.667 0.689-0.509c3.386 5.184 2.936 11.985-1.139 16.689-0.39 0.449-0.33 1.109 0.090 1.468 0.21 0.18 0.449 0.27 0.689 0.27 0.3 0 0.599-0.12 0.779-0.36 4.764-5.423 5.243-13.333 1.258-19.326zM8.389 4.345c5.184-3.356 11.985-2.906 16.659 1.139 0.21 0.18 0.449 0.27 0.689 0.27 0.3 0 0.599-0.12 0.779-0.36 0.39-0.449 0.33-1.109-0.12-1.468-5.393-4.734-13.303-5.213-19.236-1.258l-0.509-0.689-0.389 2.667 2.667 0.389-0.539-0.689z"></path>
</svg>
