<!-- Generated by IcoMoon.io -->
<svg version="1.1" xmlns="http://www.w3.org/2000/svg" width="27" height="32" viewBox="0 0 27 32">
<path d="M13.541 2.555c0.958 0 1.725 0.319 2.427 1.054 0.703 0.703 1.054 1.469 1.054 2.427s-0.319 1.725-1.054 2.427c-0.703 0.703-1.469 1.054-2.427 1.054s-1.725-0.319-2.427-1.054c-0.703-0.703-1.054-1.469-1.054-2.427s0.319-1.725 1.054-2.427c0.735-0.735 1.501-1.054 2.427-1.054zM13.541 0c-1.629 0-3.034 0.607-4.248 1.788-1.182 1.182-1.788 2.619-1.788 4.247s0.607 3.034 1.788 4.247c1.182 1.182 2.619 1.788 4.247 1.788s3.034-0.607 4.247-1.788c1.182-1.182 1.788-2.619 1.788-4.247s-0.607-3.034-1.788-4.247c-1.182-1.182-2.587-1.788-4.247-1.788v0zM13.573 32c-0.224 0-0.447-0.064-0.639-0.16l-12.295-7.122c-0.383-0.224-0.639-0.639-0.639-1.118v-13.222c0-0.447 0.224-0.862 0.607-1.086s0.83-0.255 1.246-0.064l11.561 5.717 11.88-5.844c0.383-0.192 0.862-0.16 1.245 0.064s0.607 0.639 0.607 1.086v13.381c0 0.447-0.256 0.862-0.639 1.118l-12.295 7.090c-0.192 0.096-0.415 0.16-0.639 0.16zM2.555 22.866l11.018 6.387 11.018-6.387v-10.603l-10.603 5.238c-0.351 0.16-0.766 0.16-1.118 0l-10.315-5.078v10.443zM13.413 31.681c-0.703 0-1.277-0.575-1.277-1.277v-9.9c0-0.703 0.575-1.277 1.277-1.277s1.277 0.575 1.277 1.277v9.9c0 0.703-0.575 1.277-1.277 1.277z"></path>
</svg>
