<!-- Generated by IcoMoon.io -->
<svg version="1.1" xmlns="http://www.w3.org/2000/svg" width="45" height="32" viewBox="0 0 45 32">
<path d="M44.996 12.261l-22.519-12.261-22.478 12.261 7.275 3.964v9.114l7.234 4.332c2.493 1.594 5.231 2.411 7.969 2.411s5.476-0.817 8.010-2.411l6.825-4.332v-8.909l3.024-1.635v6.948c0 0.899 0.736 1.635 1.635 1.635s1.635-0.736 1.635-1.635v-8.705l1.39-0.777zM33.757 23.336l-5.19 3.31c-3.801 2.452-8.337 2.452-12.179 0l-5.558-3.351v-5.149l11.648 6.375 11.28-6.13v4.945zM22.478 20.802l-15.653-8.541 15.653-8.541 15.693 8.541-15.694 8.541z"></path>
</svg>
