<!-- Generated by IcoMoon.io -->
<svg version="1.1" xmlns="http://www.w3.org/2000/svg" width="32" height="32" viewBox="0 0 32 32">
<path d="M17.28 12.96c-0.48 0-0.896 0.16-1.216 0.512l-4.48 4.48-10.080-2.304c-0.32-0.064-0.64 0.032-0.896 0.256l-0.32 0.32c-0.448 0.448-0.352 1.216 0.224 1.504l7.392 3.872-4.48 4.48-2.368-0.32c-0.288-0.032-0.576 0.064-0.8 0.256v0c-0.448 0.448-0.352 1.184 0.224 1.504l2.528 1.408 1.44 2.592c0.32 0.544 1.056 0.64 1.504 0.192 0.224-0.224 0.32-0.512 0.256-0.8l-0.352-2.4 4.48-4.48 3.904 7.424c0.288 0.576 1.056 0.672 1.504 0.224l0.32-0.32c0.224-0.224 0.32-0.576 0.256-0.896l-2.336-10.112 4.48-4.48c0.32-0.32 0.512-0.736 0.512-1.216s-0.16-0.896-0.512-1.216c-0.288-0.32-0.704-0.48-1.184-0.48zM23.52 8.48c-1.92-1.92-4.224-2.88-6.912-2.88-2.144 0-4.064 0.608-5.728 1.856-0.672 0.512-0.736 1.472-0.128 2.080v0c0.48 0.48 1.248 0.544 1.792 0.128 1.184-0.864 2.528-1.28 4.064-1.28 1.952 0 3.616 0.672 4.96 2.048 1.344 1.344 2.048 3.008 2.048 4.96 0 1.536-0.416 2.912-1.28 4.064-0.384 0.544-0.352 1.312 0.128 1.792v0c0.576 0.576 1.568 0.544 2.080-0.128 1.248-1.664 1.856-3.584 1.856-5.728 0-2.688-0.96-4.992-2.88-6.912zM27.488 4.512c-2.976-3.008-6.624-4.512-10.88-4.512-3.744 0-7.008 1.152-9.792 3.456-0.64 0.512-0.672 1.472-0.096 2.048l0.032 0.032c0.512 0.512 1.312 0.544 1.888 0.064 2.272-1.888 4.928-2.848 7.968-2.848 3.456 0 6.432 1.248 8.896 3.712s3.712 5.44 3.712 8.896c0 3.040-0.96 5.696-2.848 7.968-0.48 0.544-0.448 1.376 0.064 1.888l0.032 0.032c0.576 0.576 1.536 0.512 2.048-0.096 2.336-2.752 3.488-6.016 3.488-9.76 0-4.256-1.504-7.904-4.512-10.88z"></path>
</svg>
