<!-- Generated by IcoMoon.io -->
<svg version="1.1" xmlns="http://www.w3.org/2000/svg" width="37" height="32" viewBox="0 0 37 32">
<path d="M20.971 28.51h-0.165c-0.263 0.724-0.922 1.218-1.745 1.218h-16.198c-0.79 0-1.481-0.494-1.745-1.218h-0.132c-0.527 0-0.988 0.461-0.988 0.988v1.514c0 0.56 0.461 0.988 0.988 0.988h19.984c0.527 0 0.988-0.428 0.988-0.988v-1.514c0-0.527-0.428-0.988-0.988-0.988zM19.095 28.741c0.23 0 0.428-0.099 0.593-0.23 0.165-0.165 0.263-0.362 0.263-0.625 0-0.461-0.395-0.856-0.856-0.856h-16.23c-0.461 0-0.856 0.395-0.856 0.856 0 0.263 0.099 0.461 0.263 0.625 0.165 0.132 0.362 0.23 0.593 0.23h16.23zM36.412 17.119c-0.296-0.724-0.823-1.251-1.514-1.547l-7.44-3.095c-0.691-0.296-1.416-0.296-2.14 0s-1.251 0.823-1.514 1.514l-0.132 0.362-7.539-3.128 0.625-1.547c0.329 0 0.691-0.033 1.021-0.198 0.625-0.263 1.053-0.691 1.317-1.317l0.625-1.481c0.263-0.593 0.263-1.251 0-1.844-0.23-0.56-0.658-1.021-1.251-1.317l-8.099-3.325c-0.593-0.263-1.251-0.263-1.844 0s-1.053 0.691-1.317 1.35l-0.593 1.416c-0.263 0.593-0.263 1.251 0 1.844 0.132 0.329 0.329 0.593 0.56 0.823l-2.239 5.366c-0.329 0-0.658 0.066-0.988 0.198-0.593 0.263-1.054 0.691-1.317 1.284l-0.658 1.481c-0.263 0.593-0.263 1.251 0 1.844 0.263 0.626 0.691 1.054 1.317 1.317l8.099 3.424c0.296 0.099 0.593 0.165 0.856 0.165 0.329 0 0.626-0.066 0.922-0.198 0.593-0.23 1.053-0.691 1.284-1.284l0.626-1.481c0.263-0.593 0.263-1.251 0-1.844-0.132-0.329-0.329-0.626-0.593-0.856l0.626-1.481 7.506 3.128-0.132 0.362c-0.296 0.691-0.296 1.449 0 2.14 0.296 0.724 0.823 1.251 1.514 1.547l7.44 3.095c0.329 0.132 0.691 0.198 1.053 0.198s0.724-0.066 1.086-0.23c0.724-0.296 1.251-0.823 1.547-1.514l1.251-2.963c0.329-0.757 0.329-1.514 0.033-2.206zM12.839 16.79l-0.593 1.416c0 0 0 0 0 0l-7.934-3.358 0.593-1.35 1.416 0.593 3.984-9.58-1.416-0.625 0.56-1.383 7.967 3.292c0 0 0 0 0 0l-0.593 1.416-1.416-0.724-4.115 9.877 1.547 0.428zM34.14 18.305l-1.251 2.963c-0.033 0.066-0.066 0.099-0.198 0.165s-0.198 0.033-0.263 0l-7.44-3.095c-0.066-0.033-0.099-0.066-0.165-0.198s-0.033-0.198 0-0.263l0.132-0.362h0.033l0.955-2.272h-0.033l0.132-0.362c0.033-0.066 0.066-0.099 0.198-0.165s0.198-0.033 0.263 0l7.44 3.095c0.066 0.033 0.132 0.066 0.165 0.198 0.066 0.165 0.066 0.23 0.033 0.296z"></path>
</svg>
