<!-- Generated by IcoMoon.io -->
<svg version="1.1" xmlns="http://www.w3.org/2000/svg" width="22" height="32" viewBox="0 0 22 32">
<path d="M11.036 31.967c-5.795 0-10.547-4.72-10.547-10.547 0-5.794 4.72-10.547 10.547-10.547s10.547 4.753 10.547 10.547c0 5.827-4.72 10.547-10.547 10.547zM11.036 13.51c-4.362 0-7.943 3.548-7.943 7.943 0 4.362 3.548 7.943 7.943 7.943s7.943-3.548 7.943-7.943c0-4.395-3.581-7.943-7.943-7.943zM6.771 9.408l-6.771-9.408h7.552l2.995 4.199zM15.3 9.375l6.771-9.375h-7.552l-6.771 9.408z"></path>
</svg>
