<!-- Generated by IcoMoon.io -->
<svg version="1.1" xmlns="http://www.w3.org/2000/svg" width="51" height="32" viewBox="0 0 51 32">
<path d="M1.339 21.528h48.515c0.721 0 1.339-0.584 1.339-1.339s-0.584-1.339-1.339-1.339h-4.498v-3.536c0-1.064-0.584-2.026-1.717-2.85-1.133-0.858-2.403-1.476-3.777-1.82-1.373-0.378-2.644-0.549-3.777-0.549-1.167 0-2.403 0.172-3.777 0.549s-2.609 0.961-3.777 1.82c-1.133 0.858-1.717 1.82-1.717 2.85v3.571h-2.541v-3.571c0-1.064-0.584-2.026-1.717-2.85-1.133-0.858-2.403-1.476-3.777-1.82-1.373-0.378-2.644-0.549-3.777-0.549-1.167 0-2.403 0.172-3.777 0.549s-2.609 0.961-3.777 1.82c-1.133 0.858-1.717 1.82-1.717 2.85v3.571h-4.464c-0.687 0-1.27 0.584-1.27 1.305s0.584 1.339 1.339 1.339zM29.047 15.313c0-0.481 0.79-1.064 2.335-1.751s3.124-0.996 4.704-0.996c1.579 0 3.159 0.343 4.704 0.996 1.545 0.687 2.335 1.236 2.335 1.751v3.468h-14.077v-3.468zM8 15.313c0-0.481 0.79-1.064 2.335-1.751s3.124-0.996 4.704-0.996c1.579 0 3.159 0.343 4.704 0.996 1.545 0.687 2.335 1.236 2.335 1.751v3.468h-14.077v-3.468zM4.773 23.691h-3.433c-0.755 0-1.339 0.584-1.339 1.305s0.584 1.339 1.339 1.339h3.433c0.721 0 1.339-0.584 1.339-1.339s-0.618-1.305-1.339-1.305zM49.854 23.691h-3.433c-0.721 0-1.339 0.584-1.339 1.339s0.584 1.339 1.339 1.339h3.433c0.721 0 1.339-0.584 1.339-1.339s-0.618-1.339-1.339-1.339zM41.785 23.691h-32.412c-0.721 0-1.339 0.584-1.339 1.339s0.584 1.339 1.339 1.339h32.412c0.721 0 1.339-0.584 1.339-1.339s-0.584-1.339-1.339-1.339zM33.476 29.356h-15.76c-0.721 0-1.339 0.584-1.339 1.339s0.584 1.339 1.339 1.339h15.76c0.721 0 1.339-0.584 1.339-1.339s-0.618-1.339-1.339-1.339zM36.086 9.27c1.27 0 2.335-0.446 3.262-1.339 0.893-0.893 1.339-1.991 1.339-3.262s-0.446-2.369-1.339-3.262c-0.893-0.927-1.991-1.373-3.262-1.373s-2.335 0.446-3.262 1.373c-0.893 0.927-1.339 2.026-1.339 3.262 0 1.27 0.446 2.335 1.339 3.262 0.927 0.893 1.991 1.339 3.262 1.339zM34.369 2.918c0.481-0.481 1.064-0.721 1.751-0.721s1.27 0.24 1.751 0.721c0.481 0.481 0.721 1.064 0.721 1.751s-0.24 1.27-0.721 1.717c-0.481 0.446-1.064 0.687-1.751 0.687s-1.27-0.24-1.751-0.687c-0.481-0.446-0.721-1.030-0.721-1.717s0.24-1.27 0.721-1.751zM15.039 9.27c1.27 0 2.335-0.446 3.262-1.339 0.893-0.893 1.339-1.991 1.339-3.262s-0.446-2.369-1.339-3.262c-0.893-0.927-1.991-1.373-3.262-1.373s-2.335 0.446-3.262 1.373c-0.893 0.927-1.339 2.026-1.339 3.262 0 1.27 0.446 2.335 1.339 3.262 0.893 0.893 1.991 1.339 3.262 1.339zM13.288 2.918c0.481-0.481 1.064-0.721 1.751-0.721s1.27 0.24 1.751 0.721c0.481 0.481 0.721 1.064 0.721 1.751s-0.24 1.27-0.721 1.717c-0.481 0.446-1.064 0.687-1.751 0.687s-1.27-0.24-1.751-0.687c-0.481-0.446-0.721-1.030-0.721-1.717 0.034-0.687 0.275-1.27 0.721-1.751z"></path>
</svg>
