<!-- Generated by IcoMoon.io -->
<svg version="1.1" xmlns="http://www.w3.org/2000/svg" width="32" height="32" viewBox="0 0 32 32">
<path d="M32 14.412c0-1.348-0.539-2.637-1.498-3.595s-2.247-1.498-3.596-1.498c-1.348 0-2.637 0.539-3.596 1.498-0.689 0.689-1.139 1.558-1.348 2.487l-8.779-0.24c-0.15-0.509-0.36-1.019-0.689-1.468l2.277-2.277c0.869 0.569 1.858 0.869 2.846 0.869 1.288 0 2.607-0.509 3.596-1.498 1.978-1.978 1.978-5.213 0-7.191s-5.213-1.978-7.191 0c-1.648 1.648-1.918 4.105-0.869 6.052l-2.427 2.427c-1.948-1.049-4.404-0.779-6.052 0.869-0.959 0.959-1.498 2.247-1.498 3.595s0.539 2.637 1.498 3.595c0.3 0.3 0.629 0.539 0.989 0.779l-0.869 3.026c-1.258 0.060-2.397 0.599-3.296 1.468-1.978 1.978-1.978 5.213 0 7.191 0.959 0.959 2.247 1.498 3.595 1.498s2.637-0.539 3.596-1.498v0c1.978-1.978 1.978-5.213 0-7.191-0.449-0.449-0.959-0.809-1.528-1.049l0.779-2.787c0.12 0 0.21 0.030 0.33 0.030 0.959 0 1.918-0.27 2.757-0.809l2.307 2.307c-1.258 1.978-1.049 4.614 0.689 6.352 0.989 0.989 2.307 1.498 3.596 1.498s2.607-0.509 3.596-1.498v0c1.978-1.978 1.978-5.213 0-7.191-1.648-1.648-4.195-1.918-6.142-0.809l-2.367-2.367c0.27-0.479 0.479-0.989 0.569-1.498l8.749 0.24c0.21 0.869 0.659 1.678 1.318 2.307 0.959 0.959 2.247 1.498 3.596 1.498s2.637-0.539 3.596-1.498v0c0.929-0.989 1.468-2.277 1.468-3.625zM6.981 28.824v0c-0.509 0.509-1.199 0.779-1.888 0.779s-1.408-0.27-1.918-0.779c-1.049-1.049-1.049-2.757 0-3.805 0.509-0.509 1.199-0.779 1.918-0.779s1.408 0.27 1.888 0.779c1.049 1.049 1.049 2.757 0 3.805zM15.67 3.176c0.539-0.509 1.228-0.779 1.918-0.779s1.378 0.27 1.918 0.779c1.049 1.049 1.049 2.757 0 3.805s-2.757 1.049-3.805 0c-1.079-1.049-1.079-2.757-0.030-3.805zM6.352 16.3c-0.509-0.509-0.779-1.198-0.779-1.918s0.27-1.408 0.779-1.888c0.539-0.539 1.228-0.779 1.918-0.779s1.378 0.27 1.918 0.779c1.049 1.049 1.049 2.757 0 3.805-1.079 1.049-2.787 1.049-3.835 0zM17.588 21.034c0.689 0 1.378 0.27 1.918 0.779 1.049 1.049 1.049 2.757 0 3.805v0c-1.049 1.049-2.757 1.049-3.805 0s-1.049-2.757 0-3.805c0.509-0.509 1.198-0.779 1.888-0.779zM28.824 16.3v0c-0.509 0.509-1.198 0.779-1.888 0.779s-1.408-0.27-1.918-0.779-0.779-1.198-0.779-1.918 0.27-1.408 0.779-1.888 1.198-0.779 1.918-0.779 1.408 0.27 1.888 0.779c0.509 0.509 0.779 1.198 0.779 1.888s-0.27 1.408-0.779 1.918z"></path>
</svg>
