<!-- Generated by IcoMoon.io -->
<svg version="1.1" xmlns="http://www.w3.org/2000/svg" width="51" height="32" viewBox="0 0 51 32">
<path d="M4.624 8.24c0.732-0.549 1.144-1.419 1.144-2.289 3.25-1.969 6.73-2.609 10.621-2.106 4.486 0.595 10.941 6.272 10.941 6.272 3.021 2.518 4.898 4.12 8.24 4.532 3.479 0.458 6.501-0.412 9.156-2.518 2.289-1.831 3.708-4.166 4.258-7.004l1.74 0.229-3.021-5.127-3.983 4.166 1.694 0.229c-0.458 1.831-1.465 3.388-2.976 4.578-1.923 1.511-4.074 2.152-6.547 1.831-2.381-0.32-5.677-3.159-5.677-3.159-4.029-3.708-7.874-6.958-13.413-7.691-4.898-0.641-9.339 0.275-13.413 2.93-0.778-0.137-1.602 0-2.243 0.549-1.282 0.961-1.511 2.793-0.549 4.029s2.793 1.511 4.029 0.549zM45.505 14.283l0.87 1.099c-3.342 2.426-7.096 3.433-11.262 2.838-3.571-0.504-5.722-1.465-9.385-4.807-1.923-2.243-6.821-5.86-9.934-5.997-3.525-0.183-6.638 0.366-9.385 2.472-2.381 1.831-3.937 4.212-4.578 7.096-0.092 0.046-0.183 0.137-0.275 0.183-1.282 0.961-1.511 2.793-0.549 4.029 0.961 1.282 2.793 1.511 4.029 0.549s1.511-2.793 0.549-4.029c-0.046-0.046-0.092-0.137-0.137-0.183 0.504-1.877 1.602-3.479 3.205-4.715 1.969-1.511 4.258-2.106 6.775-1.74 4.258 0.641 5.402 2.609 7.783 4.99 2.426 2.381 6.226 5.127 11.582 5.814 5.173 0.687 9.797-0.549 13.871-3.571l1.282 1.648 1.373-5.677h-5.814zM34.609 26.094c-6.226-0.32-10.072-3.662-13.23-6.409-2.381-2.106-5.036-4.395-7.966-3.617-0.87-0.275-1.877-0.183-2.655 0.458-1.282 0.961-1.511 2.793-0.549 4.029 0.961 1.282 2.793 1.511 4.029 0.549 0.366-0.275 0.641-0.641 0.824-1.007 0.687 0.229 1.694 1.007 3.617 2.655 3.479 3.021 8.195 7.142 15.931 7.416v1.877l4.578-3.662-4.624-3.525 0.046 1.236z"></path>
</svg>
