<!-- Generated by IcoMoon.io -->
<svg version="1.1" xmlns="http://www.w3.org/2000/svg" width="32" height="32" viewBox="0 0 32 32">
<path d="M4.674 27.362c-3.092-3.092-4.674-6.903-4.674-11.326s1.582-8.198 4.674-11.326c3.092-3.092 6.975-4.71 11.362-4.71 4.422 0 8.27 1.51 11.362 4.602l1.115 1.115-9.492 9.564c0.36 1.187 0.072 2.121-0.791 2.984-0.575 0.575-1.33 0.863-2.229 0.863s-1.618-0.288-2.193-0.863c-0.575-0.575-0.863-1.33-0.863-2.193 0-0.899 0.288-1.618 0.863-2.193 0.863-0.863 1.906-1.043 3.092-0.719l0.144 0.072 2.625-2.625-0.216-0.144c-1.294-0.719-2.733-1.043-4.171-0.899-1.474 0.144-2.769 0.755-3.847 1.834-1.258 1.258-1.942 2.84-1.942 4.638 0 1.834 0.647 3.38 1.906 4.638s2.84 1.906 4.674 1.906c1.834 0 3.38-0.683 4.674-1.978 0.899-0.899 1.51-2.049 1.762-3.38 0.144-0.683 0.719-1.187 1.438-1.187h0.072c0.899 0 1.582 0.791 1.438 1.69-0.288 1.906-1.115 3.38-2.373 4.746-1.798 1.906-4.315 3.056-6.975 3.056s-4.926-0.935-6.796-2.805c-1.798-1.798-2.769-4.207-2.769-6.724 0-2.625 0.935-4.89 2.804-6.76 1.654-1.654 3.667-2.553 5.969-2.733s4.494 0.467 6.4 1.798l0.144 0.144 2.517-2.517-0.18-0.144c-2.697-1.942-5.681-2.912-8.953-2.733-3.308 0.144-6.148 1.402-8.485 3.739-2.517 2.517-3.811 5.645-3.811 9.276s1.258 6.76 3.775 9.276c2.517 2.517 5.645 3.775 9.276 3.775s6.76-1.33 9.276-3.847c2.193-2.193 3.488-4.818 3.775-7.874 0.072-0.755 0.719-1.294 1.438-1.294v0c0.863 0 1.546 0.755 1.474 1.618-0.36 3.667-1.942 6.903-4.638 9.6-3.128 3.092-6.939 4.674-11.326 4.674-4.422 0-8.234-1.546-11.326-4.638z"></path>
</svg>
