<!-- Generated by IcoMoon.io -->
<svg version="1.1" xmlns="http://www.w3.org/2000/svg" width="23" height="32" viewBox="0 0 23 32">
<path d="M22.846 19.59l-5.204-5.231h-4.884v-1.468h4.804c1.628 0 2.962-1.334 2.962-2.962v-4.51c0-0.827-0.32-1.548-0.881-2.108-0.534-0.534-1.281-0.881-2.108-0.881h-4.804v-1.228c0-0.667-0.534-1.201-1.201-1.201s-1.201 0.534-1.201 1.201v1.254h-5.098l-5.231 5.204 5.231 5.231h5.151v1.468h-5.071c-1.628 0-2.962 1.334-2.962 2.962v4.51c0 0.827 0.32 1.548 0.881 2.108 0.534 0.534 1.281 0.881 2.108 0.881h5.071v6.032c0 0.667 0.534 1.201 1.201 1.201s1.201-0.534 1.201-1.201v-6.058h4.857l5.178-5.204zM3.016 7.66l3.096-3.096h11.45c0.294 0 0.507 0.16 0.587 0.24s0.24 0.294 0.24 0.587v4.51c0 0.454-0.374 0.827-0.827 0.827h-11.45l-3.096-3.069zM5.284 22.659c-0.294 0-0.507-0.16-0.587-0.24s-0.24-0.294-0.24-0.587v-4.51c0-0.454 0.374-0.827 0.827-0.827h11.45l3.096 3.096-3.069 3.069h-11.476z"></path>
</svg>
