<!-- Generated by IcoMoon.io -->
<svg version="1.1" xmlns="http://www.w3.org/2000/svg" width="37" height="32" viewBox="0 0 37 32">
<path d="M37.346 30.009c0 1.106-0.885 1.991-1.991 1.991h-6.673c-1.106 0-1.991-0.885-1.991-1.991v-6.673c0-1.106 0.885-1.991 1.991-1.991h1.991v-4.018h-10.654v4.018h1.991c1.106 0 1.991 0.885 1.991 1.991v6.673c0 1.106-0.885 1.991-1.991 1.991h-6.673c-1.106 0-1.991-0.885-1.991-1.991v-6.673c0-1.106 0.885-1.991 1.991-1.991h1.991v-4.018h-10.654v4.018h1.991c1.106 0 1.991 0.885 1.991 1.991v6.673c0 1.106-0.885 1.991-1.991 1.991h-6.673c-1.106 0-1.991-0.885-1.991-1.991v-6.673c0-1.106 0.885-1.991 1.991-1.991h1.991v-4.018c0-1.475 1.217-2.654 2.654-2.654h10.691v-4.018h-1.991c-1.106 0-1.991-0.885-1.991-1.991v-6.673c0-1.106 0.885-1.991 1.991-1.991h6.673c1.106 0 1.991 0.885 1.991 1.991v6.673c0 1.106-0.885 1.991-1.991 1.991h-1.991v4.018h10.654c1.475 0 2.654 1.217 2.654 2.654v4.018h1.991c1.106 0 1.991 0.885 1.991 1.991v6.673z"></path>
</svg>
