<!-- Generated by IcoMoon.io -->
<svg version="1.1" xmlns="http://www.w3.org/2000/svg" width="61" height="32" viewBox="0 0 61 32">
<path d="M59.417 15.182h-22.67l-2.66-4.215v-8.307h1.35c0.737 0 1.35-0.614 1.35-1.35s-0.614-1.35-1.35-1.35h-10.68c-0.737 0-1.35 0.614-1.35 1.35s0.614 1.35 1.35 1.35h1.35v8.307l-2.66 4.215h-21.852c-0.9 0-1.596 0.737-1.596 1.596v0c0 0.859 0.696 1.596 1.596 1.596h19.806l-5.811 9.125c-1.555 2.496-0.45 4.501 2.496 4.501h24.020c2.946 0 4.051-2.005 2.496-4.501l-5.811-9.125h20.624c0.859 0 1.596-0.696 1.596-1.596v0c0-0.859-0.737-1.596-1.596-1.596zM22.67 21.32l1.882-2.987 2.005-3.151 1.76-2.783 0.409-0.655v-9.084h2.66v9.084l0.409 0.655 1.76 2.783 2.005 3.151 1.882 2.987h-14.772zM9.78 25.003h-4.092c-0.859 0-1.596 0.696-1.596 1.596s0.696 1.596 1.596 1.596h4.092c0.859 0 1.596-0.696 1.596-1.596s-0.737-1.596-1.596-1.596zM54.506 25.003h-4.092c-0.859 0-1.596 0.696-1.596 1.596s0.696 1.596 1.596 1.596h4.092c0.859 0 1.596-0.696 1.596-1.596s-0.737-1.596-1.596-1.596z"></path>
</svg>
