<!-- Generated by IcoMoon.io -->
<svg version="1.1" xmlns="http://www.w3.org/2000/svg" width="38" height="32" viewBox="0 0 38 32">
<path d="M26.982 12.121c1.698 0 3.127-0.579 4.323-1.776s1.776-2.625 1.776-4.323c0-1.698-0.618-3.127-1.776-4.285-1.197-1.158-2.663-1.737-4.323-1.737-1.698 0-3.127 0.579-4.323 1.737s-1.776 2.586-1.776 4.285c0 1.698 0.579 3.127 1.776 4.323s2.625 1.776 4.323 1.776zM24.511 3.628c0.695-0.695 1.505-1.004 2.432-1.004s1.737 0.347 2.432 1.004c0.695 0.695 1.042 1.467 1.042 2.393s-0.347 1.737-1.042 2.432c-0.695 0.695-1.505 1.042-2.432 1.042s-1.737-0.347-2.432-1.042c-0.695-0.695-1.042-1.505-1.042-2.432s0.347-1.698 1.042-2.393zM11.31 12.121c1.698 0 3.127-0.579 4.323-1.776s1.776-2.625 1.776-4.323c0-1.698-0.618-3.127-1.776-4.285-1.197-1.158-2.625-1.737-4.323-1.737-1.66 0-3.127 0.579-4.285 1.737-1.197 1.158-1.776 2.586-1.776 4.285s0.579 3.127 1.776 4.323c1.158 1.197 2.625 1.776 4.285 1.776zM8.878 3.628c0.695-0.695 1.505-1.004 2.432-1.004s1.737 0.347 2.432 1.004c0.695 0.695 1.042 1.467 1.042 2.393s-0.347 1.737-1.042 2.432c-0.695 0.695-1.505 1.042-2.432 1.042s-1.737-0.347-2.432-1.042c-0.695-0.695-1.042-1.505-1.042-2.432s0.347-1.698 1.042-2.393zM34.393 15.44c-2.625-1.042-5.095-1.583-7.411-1.583-2.548 0-5.172 0.618-7.836 1.776-2.663-1.197-5.288-1.776-7.836-1.776-2.355 0-4.825 0.54-7.411 1.583s-3.899 2.432-3.899 4.13v12.468h38.292v-12.468c0-1.698-1.312-3.088-3.899-4.13zM20.034 29.414h-17.409v-9.843c0-0.54 0.965-1.197 2.895-1.969s3.86-1.158 5.829-1.158c1.969 0 3.899 0.386 5.829 1.158s2.895 1.428 2.895 1.969v9.843zM35.667 29.414h-13.008v-9.843c0-0.695-0.309-1.428-0.888-2.123 2.046-0.656 3.783-0.965 5.211-0.965 1.969 0 3.899 0.386 5.829 1.158s2.895 1.428 2.895 1.969v9.805z"></path>
</svg>
