<!-- Generated by IcoMoon.io -->
<svg version="1.1" xmlns="http://www.w3.org/2000/svg" width="30" height="32" viewBox="0 0 30 32">
<path d="M0 32v-8.671c0-1.341 0.967-2.526 2.651-3.649 1.809-1.216 3.899-2.090 6.113-2.62s4.335-0.78 6.175-0.78c1.871 0 3.961 0.281 6.175 0.78 2.183 0.53 4.335 1.404 6.175 2.62 1.715 1.123 2.651 2.339 2.651 3.649v8.671h-29.942zM15.002 18.589c-2.713 0-5.489 0.53-8.14 1.528-3.025 1.154-4.366 2.121-4.366 3.212v6.175h24.951v-6.175c0-1.092-1.31-2.058-4.335-3.212-2.651-0.998-5.396-1.528-8.109-1.528zM15.002 14.035c-1.934 0-3.556-0.686-4.928-2.058s-2.058-2.994-2.058-4.928c0-1.934 0.686-3.556 2.058-4.959s2.994-2.090 4.928-2.090c1.934 0 3.524 0.686 4.928 2.090 1.372 1.404 2.058 3.025 2.058 4.959s-0.686 3.556-2.058 4.928c-1.404 1.403-3.025 2.058-4.928 2.058zM15.002 2.308c-1.341 0-2.464 0.468-3.368 1.372s-1.372 2.058-1.372 3.368c0 1.341 0.468 2.464 1.372 3.337s2.027 1.31 3.368 1.31c1.31 0 2.464-0.437 3.368-1.31s1.372-1.996 1.372-3.337c0-1.31-0.468-2.464-1.372-3.368-0.936-0.904-2.058-1.372-3.368-1.372z"></path>
</svg>
