<!-- Generated by IcoMoon.io -->
<svg version="1.1" xmlns="http://www.w3.org/2000/svg" width="42" height="32" viewBox="0 0 42 32">
<path d="M18.526 32c-1.203 0-2.366-0.281-3.529-0.842s-2.246-1.323-3.208-2.286l-5.534-4.972c-0.040-0.040-0.12-0.080-0.2-0.080h-1.323c-0.12 0-0.2 0.080-0.281 0.16-0.12 0.281-0.321 0.521-0.561 0.722s-0.521 0.281-0.842 0.281h-1.604c-0.401 0-0.762-0.12-1.043-0.441-0.281-0.241-0.401-0.561-0.401-1.003v-17.444c0-0.401 0.12-0.762 0.441-1.043 0.281-0.281 0.642-0.441 1.043-0.441h1.644c0.441 0 0.802 0.16 1.083 0.481 0.040 0.080 0.12 0.080 0.2 0.080h1.885c0.080 0 0.16-0.040 0.2-0.080l2.847-2.847c0.762-0.762 1.604-1.323 2.607-1.724 0.962-0.401 2.005-0.602 3.008-0.602h2.286c1.283 0 2.566 0.321 3.769 1.002 0.040 0.040 0.080 0.040 0.12 0.040s0.12 0 0.16-0.040c1.123-0.602 2.246-0.922 3.449-0.922h3.409c1.083 0 2.085 0.241 3.008 0.682s1.764 1.083 2.446 1.845l2.326 2.607c0.040 0.080 0.12 0.080 0.2 0.080h1.684c0.080 0 0.16-0.040 0.2-0.080 0.281-0.321 0.642-0.481 1.083-0.481h1.644c0.401 0 0.762 0.12 1.043 0.441 0.281 0.281 0.441 0.642 0.441 1.043v17.444c0 0.401-0.12 0.762-0.441 1.043s-0.642 0.441-1.043 0.441h-1.644c-0.321 0-0.602-0.080-0.842-0.281s-0.441-0.441-0.561-0.722c-0.040-0.12-0.16-0.16-0.281-0.16h-2.927c-0.080 0-0.2 0.040-0.241 0.12-0.882 1.283-2.125 2.085-3.729 2.406-0.080 0-0.12 0.040-0.16 0.12-0.922 1.203-2.085 2.045-3.489 2.446-0.040 0-0.080 0.040-0.12 0.080-0.642 0.682-1.404 1.243-2.246 1.604s-1.724 0.561-2.647 0.561c-0.040 0-0.080 0-0.12 0.040-0.922 0.441-2.005 0.722-3.208 0.722zM4.852 8.14c-0.16 0-0.281 0.12-0.281 0.281v12.231c0 0.16 0.12 0.281 0.281 0.281h1.724c0.521 0 0.962 0.16 1.323 0.521l5.895 5.293c0.642 0.682 1.323 1.243 2.085 1.644 0.922 0.441 1.805 0.682 2.687 0.682 1.083 0 1.965-0.321 2.607-0.922 0.321 0.080 0.642 0.16 0.922 0.16 0.521 0 1.003-0.12 1.484-0.401 0.722-0.401 1.203-0.962 1.444-1.644 0.040 0 0.040 0 0.080 0 0.642 0 1.243-0.16 1.764-0.441 0.602-0.321 1.043-0.762 1.363-1.283 0.201-0.321 0.361-0.642 0.401-0.922 0.16 0.040 0.321 0.080 0.521 0.080 0 0 0 0 0 0 0.12 0 0.241 0 0.361 0 0.722-0.040 1.404-0.361 2.005-0.882 0.521-0.481 0.842-1.123 0.842-1.965 0.040-0.802-0.2-1.484-0.682-2.085l-5.253-7.018c-0.040-0.080-0.12-0.12-0.241-0.12 0 0 0 0 0 0-0.080 0-0.16 0.040-0.201 0.080l-1.885 2.165c-0.722 0.882-1.644 1.444-2.687 1.724-0.481 0.12-1.003 0.2-1.484 0.2-0.561 0-1.163-0.080-1.724-0.281-1.043-0.321-1.965-0.922-2.687-1.805-0.842-0.962-1.243-2.085-1.203-3.288 0.040-1.243 0.441-2.326 1.203-3.248l3.208-3.689c0.080-0.080 0.080-0.2 0.040-0.281s-0.12-0.16-0.201-0.2c-0.441-0.12-0.882-0.16-1.283-0.16h-2.326c-1.363 0-2.566 0.481-3.529 1.484l-3.208 3.208c-0.401 0.401-0.842 0.561-1.404 0.561h-1.965zM26.987 6.977c0.321 0 0.602 0.080 0.842 0.321 0.281 0.241 0.481 0.521 0.521 0.842 0.080 0.321 0.040 0.642-0.080 0.922-0.040 0.080-0.040 0.2 0.040 0.281l5.654 7.579c0.922 1.083 1.404 2.326 1.404 3.769 0 0.16 0.12 0.281 0.281 0.281h1.724c0.16 0 0.281-0.12 0.281-0.281v-12.271c0-0.16-0.12-0.281-0.281-0.281h-2.687l-3.248-3.729c-0.882-1.002-1.965-1.484-3.288-1.484h-3.409c-1.083 0-2.045 0.441-2.767 1.243l-4.211 4.932c-0.321 0.401-0.521 0.842-0.521 1.363-0.040 0.561 0.16 1.002 0.561 1.403 0.521 0.682 1.203 1.043 2.045 1.043s1.524-0.321 2.085-0.962l3.93-4.491c0.241-0.281 0.561-0.441 0.962-0.481 0.040 0 0.12 0 0.16 0z"></path>
</svg>
