<!-- Generated by IcoMoon.io -->
<svg version="1.1" xmlns="http://www.w3.org/2000/svg" width="38" height="32" viewBox="0 0 38 32">
<path d="M9.364 26.585v-3.949l-3.461 0.611-2.891-16c0-0.081 0-0.163 0.081-0.244s0.122-0.122 0.204-0.163l21.17-3.827c0.081 0 0.163 0 0.244 0.081s0.122 0.122 0.163 0.204l0.407 2.158h2.809l-0.529-2.972c-0.122-0.774-0.529-1.343-1.14-1.791s-1.303-0.57-2.076-0.448l-21.863 3.908c-0.774 0.122-1.343 0.529-1.791 1.14s-0.57 1.303-0.448 2.076l3.623 20.193c0.122 0.774 0.529 1.343 1.14 1.791s1.303 0.57 2.076 0.448l2.361-0.407c-0.041-0.163-0.041-0.366-0.041-0.57v-2.239zM36.6 6.514c-0.529-0.529-1.181-0.814-1.954-0.814h-22.188c-0.774 0-1.425 0.285-1.954 0.814s-0.814 1.181-0.814 1.954v20.519c0 0.204 0 0.366 0.041 0.57 0.081 0.529 0.366 1.018 0.774 1.425 0.529 0.529 1.181 0.814 1.954 0.814h22.148c0.774 0 1.425-0.285 1.954-0.814s0.814-1.181 0.814-1.954v-20.56c0-0.774-0.244-1.425-0.774-1.954zM34.606 25.12h-22.229v-16.285c0-0.081 0.041-0.163 0.122-0.244s0.163-0.122 0.244-0.122h21.537c0.081 0 0.163 0.041 0.244 0.122s0.122 0.163 0.122 0.244v16.285zM16.366 16.692c0.733 0 1.343-0.244 1.832-0.733s0.733-1.099 0.733-1.832c0-0.733-0.244-1.344-0.733-1.832s-1.099-0.733-1.832-0.733c-0.733 0-1.344 0.244-1.832 0.733s-0.733 1.099-0.733 1.832c0 0.733 0.244 1.344 0.733 1.832s1.099 0.733 1.832 0.733zM28.132 13.598c-0.122-0.122-0.285-0.204-0.529-0.204-0.204 0-0.366 0.081-0.529 0.204l-6.677 6.677-2.483-2.565c-0.122-0.122-0.285-0.204-0.529-0.204s-0.366 0.081-0.529 0.204l-2.565 2.565v3.053h18.402v-5.13l-2.565-2.606-1.995-1.995z"></path>
</svg>
