<!-- Generated by IcoMoon.io -->
<svg version="1.1" xmlns="http://www.w3.org/2000/svg" width="42" height="32" viewBox="0 0 42 32">
<path d="M21.053 13.474h12.632v10.526h-12.632v-10.526zM5.895 13.474h13.474v2.526h-13.474v-2.526zM5.895 17.684h13.474v2.526h-13.474v-2.526zM5.895 21.895h13.474v2.105h-13.474v-2.105zM5.474 5.895h27.789v5.474h-27.789v-5.474zM39.579 5.558v-2.063c0-0.884-0.253-1.726-0.926-2.4s-1.347-1.095-2.232-1.095h-33.053c-0.884 0-1.684 0.421-2.358 1.095s-1.011 1.516-1.011 2.4v25.095c0 0.884 0.337 1.684 1.011 2.358s1.474 1.053 2.358 1.053h33.053c0.211 0 0.421 0 0.632-0.042v0.042h1.6c1.853 0 3.495-1.558 3.495-3.411v-20.463c-0.042-1.305-1.305-2.4-2.568-2.568zM36.211 28.632h-32.842v-25.263h32.842v25.263z"></path>
</svg>
