<!-- Generated by IcoMoon.io -->
<svg version="1.1" xmlns="http://www.w3.org/2000/svg" width="32" height="32" viewBox="0 0 32 32">
<path d="M15.584 16.416c1.831 1.831 4.096 2.764 6.793 2.764s4.962-0.932 6.826-2.764c1.865-1.831 2.797-4.096 2.797-6.793s-0.932-4.962-2.797-6.826c-1.898-1.865-4.162-2.797-6.826-2.797-2.697 0-4.928 0.932-6.793 2.797-1.831 1.865-2.764 4.162-2.764 6.826 0 1.632 0.333 3.097 1.032 4.429l-3.097 1.998c-1.199-1.099-2.631-1.632-4.296-1.632-1.798 0-3.33 0.633-4.595 1.865-1.232 1.232-1.865 2.73-1.865 4.495 0 1.732 0.633 3.23 1.865 4.495s2.764 1.865 4.595 1.865c1.732 0 3.23-0.599 4.495-1.831 0.133-0.133 0.266-0.266 0.366-0.4l6.293 3.030c0 0 0 0.033 0 0.033 0 1.132 0.4 2.065 1.165 2.864 0.766 0.766 1.732 1.165 2.864 1.165s2.065-0.4 2.797-1.165c0.733-0.766 1.132-1.732 1.132-2.864s-0.366-2.065-1.132-2.864c-0.733-0.766-1.698-1.165-2.797-1.165-1.132 0-2.065 0.4-2.864 1.165-0.1 0.1-0.2 0.2-0.266 0.3l-5.894-2.83c0.166-0.566 0.233-1.165 0.233-1.798 0-0.932-0.166-1.798-0.499-2.564l3.063-1.965c0.033 0.033 0.1 0.1 0.166 0.166zM20.645 27.005c0.266-0.266 0.566-0.4 0.966-0.4 0.466 0 0.666 0.133 0.899 0.333 0.266 0.3 0.366 0.566 0.366 0.999s-0.1 0.733-0.366 0.999c-0.2 0.2-0.433 0.333-0.899 0.333-0.433 0-0.699-0.1-0.966-0.4-0.266-0.266-0.4-0.533-0.4-0.966 0-0.333 0.1-0.633 0.4-0.899zM6.46 24.474c-1.099 0-1.965-0.333-2.697-1.099-0.766-0.733-1.099-1.565-1.099-2.597s0.333-1.865 1.099-2.597c0.733-0.733 1.598-1.099 2.697-1.099 1.032 0 1.898 0.333 2.631 1.066 0.733 0.699 1.066 1.532 1.066 2.631s-0.333 1.931-1.066 2.631c-0.766 0.733-1.598 1.066-2.631 1.066zM17.482 4.662c1.332-1.365 2.93-1.998 4.895-1.998s3.596 0.666 4.962 2.031c1.365 1.365 2.031 2.997 2.031 4.962s-0.666 3.563-1.998 4.895c-1.365 1.332-2.997 1.998-4.962 1.998s-3.563-0.633-4.895-1.965c-1.332-1.332-1.965-2.93-1.965-4.895-0.067-2.031 0.599-3.663 1.931-5.028z"></path>
</svg>
