<!-- Generated by IcoMoon.io -->
<svg version="1.1" xmlns="http://www.w3.org/2000/svg" width="32" height="32" viewBox="0 0 32 32">
<path d="M17.889 4.548l1.92-1.92 1.92 1.92-1.92 1.92-1.92-1.92zM2.627 12.191l1.92-1.92 1.92 1.92-1.92 1.92-1.92-1.92zM10.27 4.569l1.92-1.92 1.92 1.92-1.92 1.92-1.92-1.92zM17.907 0.776c-0.485-0.517-1.131-0.776-1.907-0.776s-1.422 0.259-1.907 0.776l1.907 1.907 1.907-1.907zM21.723 8.392l1.92-1.92 1.874 1.874-1.92 1.92-1.874-1.874zM25.511 12.191l1.92-1.92 1.92 1.92-1.92 1.92-1.92-1.92zM6.432 16l9.568 9.568 9.568-9.568-9.568-9.568-9.568 9.568zM16 21.721l-5.721-5.721 5.721-5.721 5.721 5.721-5.721 5.721zM6.471 8.358l1.874-1.874 1.92 1.92-1.874 1.874-1.92-1.92zM25.532 19.81l1.92-1.92 1.92 1.92-1.92 1.92-1.92-1.92zM17.889 27.433l1.92-1.92 1.92 1.92-1.92 1.92-1.92-1.92zM21.734 23.599l1.874-1.874 1.92 1.92-1.874 1.874-1.92-1.92zM31.257 14.093l-1.907 1.907 1.907 1.907c0.517-0.517 0.743-1.131 0.776-1.907-0.032-0.776-0.291-1.422-0.776-1.907zM0.776 14.093c-0.517 0.485-0.776 1.131-0.776 1.907s0.259 1.422 0.776 1.907l1.907-1.907-1.907-1.907zM14.093 31.257c0.517 0.517 1.131 0.776 1.907 0.776s1.422-0.259 1.907-0.776l-1.907-1.907-1.907 1.907zM2.648 19.811l1.92-1.92 1.92 1.92-1.92 1.92-1.92-1.92zM6.482 23.655l1.92-1.92 1.874 1.874-1.92 1.92-1.874-1.874zM10.27 27.454l1.92-1.92 1.92 1.92-1.92 1.92-1.92-1.92z"></path>
</svg>
