<!-- Generated by IcoMoon.io -->
<svg version="1.1" xmlns="http://www.w3.org/2000/svg" width="32" height="32" viewBox="0 0 32 32">
<path d="M30.75 14.75h-4.937c-0.122-0.731-0.335-1.737-0.67-2.53l2.53-1.432c0.61-0.335 0.792-1.097 0.457-1.707s-1.097-0.792-1.707-0.457l-2.53 1.432c-0.518-0.67-1.128-1.31-1.798-1.829l1.493-2.499c0.366-0.579 0.152-1.371-0.427-1.707-0.579-0.366-1.371-0.152-1.707 0.427l-1.554 2.499c-0.853-0.366-1.707-0.64-2.804-0.762v-4.937c0-0.701-0.549-1.25-1.25-1.25s-1.25 0.549-1.25 1.25v4.937c-0.731 0.122-1.646 0.335-2.438 0.67l-1.402-2.469c-0.335-0.61-1.097-0.792-1.676-0.427v0c-0.61 0.366-0.792 1.067-0.457 1.646l1.432 2.499c-0.67 0.518-1.31 1.097-1.829 1.768l-2.499-1.493c-0.579-0.366-1.341-0.152-1.707 0.427s-0.152 1.341 0.427 1.707l2.499 1.493c-0.366 0.853-0.64 1.646-0.762 2.712h-4.937c-0.701 0-1.25 0.579-1.25 1.25s0.549 1.25 1.25 1.25h4.937c0.122 0.731 0.335 1.707 0.67 2.53l-2.53 1.432c-0.61 0.335-0.792 1.097-0.457 1.707s1.097 0.792 1.707 0.457l2.53-1.432c0.518 0.67 1.128 1.31 1.798 1.829l-1.493 2.499c-0.366 0.579-0.152 1.371 0.427 1.707 0.579 0.366 1.371 0.152 1.707-0.427l1.402-2.499c0.853 0.366 1.92 0.64 2.651 0.762v4.937c0 0.701 0.579 1.25 1.25 1.25s1.25-0.549 1.25-1.25v-4.907c1.067-0.122 1.798-0.335 2.59-0.67l1.463 2.53c0.335 0.61 1.128 0.792 1.707 0.457 0.61-0.335 0.823-1.097 0.488-1.707l-1.402-2.53c0.67-0.518 1.31-1.128 1.829-1.798l2.499 1.493c0.579 0.366 1.371 0.152 1.707-0.427 0.366-0.579 0.152-1.371-0.427-1.707l-2.469-1.493c0.366-0.853 0.64-1.646 0.762-2.712h4.937c0.701 0 1.25-0.579 1.25-1.25s-0.579-1.25-1.28-1.25zM16 23.771c-4.267 0-7.771-3.505-7.771-7.771s3.505-7.771 7.771-7.771 7.771 3.505 7.771 7.771-3.505 7.771-7.771 7.771z"></path>
</svg>
