<!-- Generated by IcoMoon.io -->
<svg version="1.1" xmlns="http://www.w3.org/2000/svg" width="34" height="32" viewBox="0 0 34 32">
<path d="M34.117 28.807c0 0-0.036-0.036-0.036-0.036v-16.969l-34.081-11.803v32h34.081l0.036-3.193zM2.511 9.543c3.946 0.574 7.713 1.865 11.121 3.623-3.48-1.112-7.175-1.794-11.121-2.009v-1.614zM31.57 13.596v11.552c-6.099-8.179-16.502-16.395-29.058-18.117v-3.516l29.058 10.081zM2.511 13.704c12.197 0.682 22.135 6.099 28.807 15.677 0 0 0.072 0.108 0.108 0.108h-28.915v-15.785z"></path>
</svg>
