<!-- Generated by IcoMoon.io -->
<svg version="1.1" xmlns="http://www.w3.org/2000/svg" width="32" height="32" viewBox="0 0 32 32">
<path d="M14.9 11.225c0 0.394-0.197 0.722-0.558 0.853-0.328 0.131-0.689 0.066-0.919-0.164l-0.066-0.066-7.811-7.024c0 0-0.525-0.525-0.066-0.952 0 0 0.263-0.328 0.821 0l4.529 2.855c0 0 0.853 0.558 1.444 0.361h0.033c0.591-0.295 0.755-1.28 0.755-1.28l1.116-5.218c0.164-0.624 0.591-0.591 0.591-0.591 0.624-0.033 0.624 0.722 0.624 0.722l-0.492 10.503zM17.099 20.743c0-0.361 0.197-0.722 0.558-0.853 0.328-0.131 0.689-0.066 0.919 0.164l0.066 0.066 7.811 7.056c0 0 0.525 0.525 0.066 0.952 0 0-0.263 0.328-0.82 0l-4.529-2.888c0 0-0.853-0.558-1.444-0.361h-0.033c-0.591 0.295-0.755 1.28-0.755 1.28l-1.116 5.218c-0.164 0.624-0.591 0.558-0.591 0.558-0.624 0.033-0.624-0.722-0.624-0.722l0.492-10.47zM11.225 17.067c0.394 0 0.722 0.197 0.853 0.558 0.131 0.328 0.066 0.689-0.164 0.919l-0.066 0.066-7.024 7.844c0 0-0.525 0.525-0.952 0.066 0 0-0.328-0.263 0-0.82l2.855-4.529c0 0 0.558-0.853 0.361-1.444v-0.033c-0.295-0.591-1.28-0.755-1.28-0.755l-5.218-1.116c-0.624-0.164-0.591-0.591-0.591-0.591-0.033-0.624 0.722-0.624 0.722-0.624l10.503 0.459zM20.743 14.9c-0.394 0-0.722-0.197-0.853-0.558-0.131-0.328-0.066-0.689 0.164-0.919l0.066-0.066 7.056-7.811c0 0 0.525-0.525 0.952-0.066 0 0 0.328 0.263 0 0.821l-2.855 4.529c0 0-0.558 0.853-0.361 1.444v0.033c0.295 0.591 1.28 0.755 1.28 0.755l5.218 1.116c0.624 0.164 0.591 0.591 0.591 0.591 0.033 0.624-0.722 0.624-0.722 0.624l-10.535-0.492zM11.881 13.391c0.263 0.263 0.361 0.624 0.23 0.985-0.131 0.328-0.427 0.525-0.755 0.525h-0.098l-10.503 0.558c0 0-0.755 0-0.722-0.624 0 0-0.033-0.394 0.558-0.591l5.186-1.116c0 0 0.985-0.197 1.28-0.788v-0.033c0.197-0.624-0.361-1.444-0.361-1.444l-2.888-4.496c-0.295-0.558 0-0.821 0-0.821 0.394-0.46 0.952 0.066 0.952 0.066l7.122 7.778zM20.119 18.609c-0.263-0.263-0.361-0.624-0.23-0.985 0.131-0.328 0.427-0.525 0.755-0.525h0.098l10.503-0.558c0 0 0.755 0 0.722 0.624 0 0 0.033 0.394-0.558 0.591l-5.218 1.149c0 0-0.985 0.197-1.28 0.755v0.033c-0.197 0.624 0.361 1.444 0.361 1.444l2.921 4.464c0.295 0.558 0 0.82 0 0.82-0.394 0.459-0.952-0.066-0.952-0.066l-7.122-7.746zM13.391 20.119c0.263-0.263 0.624-0.361 0.985-0.23 0.328 0.131 0.525 0.427 0.525 0.755v0.098l0.558 10.503c0 0 0 0.755-0.624 0.722 0 0-0.394 0.033-0.591-0.558l-1.116-5.218c0 0-0.197-0.985-0.788-1.28h-0.033c-0.624-0.197-1.444 0.361-1.444 0.361l-4.496 2.888c-0.558 0.295-0.821 0-0.821 0-0.46-0.394 0.066-0.952 0.066-0.952l7.778-7.089zM18.609 11.881c-0.263 0.263-0.624 0.361-0.985 0.23-0.328-0.131-0.525-0.427-0.525-0.755v-0.098l-0.558-10.503c0 0 0-0.755 0.624-0.722 0 0 0.394-0.033 0.591 0.558l1.149 5.218c0 0 0.197 0.985 0.788 1.28h0.033c0.624 0.197 1.444-0.361 1.444-0.361l4.431-2.921c0.558-0.295 0.82 0 0.82 0 0.459 0.394-0.066 0.952-0.066 0.952l-7.746 7.122z"></path>
</svg>
