<!-- Generated by IcoMoon.io -->
<svg version="1.1" xmlns="http://www.w3.org/2000/svg" width="32" height="32" viewBox="0 0 32 32">
<path d="M11.072 12.585c0.879 0.066 1.011 0.425 1.011 1.076v3.289h-0.021l-3.771-4.629h-2.29v0.272c0.141 0 0.314 0.033 0.924 0.783v5.137c0 0.718-0.299 0.792-0.957 0.87v0.272h2.464v-0.275c-0.804-0.087-1.032-0.299-1.032-1.073v-4.345h0.021l4.835 5.888h0.299v-6.399c0-0.52 0.066-0.771 0.846-0.87v-0.26h-2.329v0.272zM18.009 15.593l-1.597-0.792c-0.912-0.457-1.118-0.685-1.118-1.283 0-0.706 0.598-1.032 1.163-1.032 1.28 0 1.932 1.25 2.129 2.009h0.299v-2.356h-0.323c-0.054 0.206-0.108 0.368-0.359 0.368-0.314 0-0.825-0.359-1.692-0.359-2.063 0-2.392 1.477-2.392 2.138 0 0.499 0 1.432 1.857 2.323l0.727 0.347c0.706 0.338 1.217 0.598 1.217 1.325 0 0.141-0.054 1.217-1.357 1.217-1.378 0-2.009-1.226-2.228-2.323h-0.32v2.691h0.314c-0-0.002-0-0.003-0-0.005 0-0.188 0.142-0.342 0.324-0.363l0.002-0c0.335 0 0.825 0.371 1.857 0.371 1.997 0 2.691-1.316 2.691-2.269 0-0.006 0-0.014 0-0.021 0-0.856-0.478-1.6-1.181-1.98l-0.012-0.006zM19.842 12.585c0.511 0.033 0.954 0.054 0.954 0.771v5.245c0 0.673-0.335 0.706-0.954 0.771v0.272h3.908v-0.263c-0.759-0.033-1.196-0.054-1.196-0.771v-2.53c1.369 0 1.543 0.792 1.663 1.683h0.272v-3.669h-0.269c-0.152 0.87-0.314 1.639-1.663 1.618v-2.521c0-0.466 0.194-0.511 0.78-0.511 1.869 0 2.162 0.685 2.392 1.812h0.26v-2.171h-6.148v0.272zM29.506 14.242c-0.102-0.266-0.197-0.535-0.281-0.81-0.031-0.322-0.048-0.697-0.048-1.075 0-0.139 0.002-0.278 0.007-0.416l-0.001 0.020c0.185-0.957 0.876-1.462 1.704-1.776-0.096-0.242-0.215-0.532-0.299-0.733-0.897 0.434-1.97 0.511-2.781-0.254q-0.257-0.275-0.502-0.562c-0.22-0.396-0.442-0.872-0.631-1.364l-0.027-0.080c-0.194-0.954 0.251-1.686 0.897-2.293-0.182-0.188-0.404-0.41-0.556-0.562-0.661 0.745-1.627 1.226-2.667 0.831-0.2-0.090-0.398-0.182-0.598-0.281-0.435-0.354-0.826-0.72-1.189-1.111l-0.007-0.007c-0.544-0.807-0.416-1.654-0.048-2.461l-0.73-0.299c-0.326 0.939-1.032 1.755-2.147 1.794-0.341 0-0.679-0.030-1.017-0.066-0.495-0.166-0.891-0.325-1.276-0.503l0.080 0.033c-0.813-0.535-1.017-1.369-0.987-2.255h-0.819c0.057 0.993-0.284 2.018-1.298 2.473q-0.353 0.135-0.712 0.251c-0.357 0.038-0.771 0.060-1.19 0.060-0.137 0-0.273-0.002-0.409-0.007l0.020 0.001c-0.957-0.185-1.462-0.876-1.776-1.704l-0.73 0.299c0.434 0.897 0.511 1.97-0.254 2.781q-0.299 0.299-0.631 0.562c-0.383 0.21-0.846 0.423-1.324 0.606l-0.081 0.027c-0.954 0.194-1.686-0.248-2.293-0.897-0.188 0.182-0.41 0.404-0.562 0.556 0.742 0.661 1.226 1.627 0.831 2.667-0.099 0.218-0.197 0.434-0.299 0.646-0.344 0.406-0.699 0.773-1.076 1.116l-0.010 0.009c-0.807 0.544-1.654 0.416-2.461 0.048-0.102 0.239-0.224 0.529-0.299 0.73 0.939 0.326 1.755 1.035 1.794 2.147 0 0.299-0.024 0.598-0.051 0.897-0.173 0.544-0.347 0.99-0.546 1.422l0.031-0.076c-0.535 0.813-1.369 1.017-2.255 0.987 0 0.26 0 0.574 0 0.789 0.993-0.057 2.018 0.284 2.473 1.301q0.138 0.362 0.257 0.73c0.037 0.349 0.058 0.754 0.058 1.164 0 0.143-0.003 0.285-0.008 0.426l0.001-0.020c-0.185 0.957-0.876 1.462-1.704 1.776 0.096 0.242 0.215 0.532 0.299 0.733 0.897-0.434 1.97-0.511 2.781 0.254q0.299 0.299 0.553 0.622c0.208 0.381 0.42 0.842 0.603 1.317l0.028 0.082c0.194 0.954-0.251 1.686-0.897 2.293l0.556 0.562c0.661-0.742 1.627-1.226 2.667-0.831 0.233 0.105 0.46 0.212 0.688 0.329 0.404 0.331 0.767 0.668 1.107 1.026l0.005 0.005c0.547 0.807 0.416 1.654 0.048 2.461 0.239 0.105 0.529 0.224 0.73 0.299 0.326-0.939 1.035-1.755 2.147-1.794 0.299 0 0.568 0.024 0.852 0.048 0.566 0.175 1.033 0.357 1.486 0.566l-0.074-0.031c0.813 0.538 1.017 1.369 0.987 2.255h0.792c-0.057-0.993 0.281-2.018 1.298-2.473 0.269-0.102 0.541-0.197 0.816-0.284 0.324-0.031 0.7-0.048 1.080-0.048 0.135 0 0.27 0.002 0.404 0.007l-0.020-0c0.957 0.185 1.462 0.876 1.773 1.707l0.733-0.299c-0.434-0.897-0.511-1.973 0.254-2.784q0.299-0.299 0.631-0.562c0.358-0.193 0.798-0.395 1.25-0.57l0.083-0.028c0.954-0.194 1.686 0.248 2.293 0.897l0.562-0.556c-0.745-0.661-1.226-1.627-0.831-2.667 0.129-0.299 0.266-0.574 0.419-0.855 0.315-0.372 0.634-0.708 0.971-1.026l0.006-0.006c0.807-0.547 1.654-0.416 2.461-0.048 0.102-0.239 0.221-0.529 0.299-0.73-0.939-0.326-1.755-1.032-1.794-2.147 0-0.299 0.027-0.625 0.057-0.936 0.169-0.52 0.336-0.941 0.525-1.351l-0.032 0.077c0.535-0.813 1.369-1.017 2.255-0.987 0-0.263 0-0.574 0-0.792-0.963 0.099-1.985-0.257-2.428-1.271zM25.649 7.768c0.402 0.165 0.733 0.434 0.97 0.773l0.005 0.007c0.289 0.387 0.527 0.834 0.692 1.314l0.010 0.034-0.057 0.212c-0.155 0.344-0.58 0.419-0.912 0.535l-0.466 0.075c-0.397-0.736-0.833-1.37-1.326-1.954l0.014 0.017q0.173-0.278 0.362-0.544c0.146-0.256 0.404-0.434 0.704-0.469l0.004-0zM26.247 12.077v0.015l0.075 0.203v0.039l0.066 0.188 0.018 0.054 0.060 0.182c0.194 0.604 0.345 1.313 0.423 2.045l0.004 0.048c0 0.036 0 0.072 0 0.108s0 0.093 0 0.141 0 0.093 0 0.138v0.105q0 0.078 0 0.158c0 0.027 0 0.051 0 0.078s0 0.12 0 0.179 0 0.155 0 0.233c0 0.027 0 0.051 0 0.078v0q0 0.481-0.048 0.951v0c-0.072 0.776-0.212 1.487-0.418 2.171l0.020-0.078q-0.129 0.437-0.299 0.858c-0.039 0.102-0.081 0.206-0.123 0.299v0l0.045 0.126-0.048 0.111-0.075 0.164-0.030 0.045-0.093 0.191-0.105 0.203c-0.366 0.69-0.763 1.285-1.212 1.835l0.016-0.020q-0.138 0.17-0.299 0.335l-0.018 0.018q-0.146 0.164-0.299 0.323v0l-0.248 0.251-0.164 0.158-0.155 0.144-0.051 0.045-0.123 0.108-0.129 0.111-0.057 0.048c-0.51 0.424-1.079 0.814-1.684 1.149l-0.056 0.029-0.108 0.078-0.111 0.057-0.144 0.072-0.063 0.033-0.17 0.081h-0.030l-0.191 0.114-0.32 0.135-0.206 0.081h-0.024l-0.191 0.072-0.045 0.012-0.176 0.060-0.063 0.021-0.173 0.057c-0.604 0.193-1.314 0.343-2.045 0.421l-0.048 0.004h-0.395l-0.090 0.036h-0.759q-0.469 0-0.927-0.048c-0.79-0.074-1.515-0.22-2.21-0.433l0.078 0.020-0.212-0.066-0.203-0.069h-0.024q-0.203-0.072-0.404-0.149v0l-0.323-0.135q-0.425-0.182-0.831-0.401v0c-0.671-0.361-1.248-0.75-1.784-1.188l0.020 0.016q-0.173-0.141-0.341-0.299h-0.015q-0.167-0.146-0.326-0.299l-0.221-0.218q-0.353-0.32-0.658-0.694v0c-0.442-0.531-0.847-1.126-1.191-1.757l-0.029-0.058q-0.215-0.401-0.404-0.819v0q-0.060-0.138-0.117-0.278v0l-0.081-0.206v-0.024l-0.075-0.2v-0.027l-0.069-0.206v-0.018l-0.087-0.218c-0.194-0.614-0.341-1.335-0.415-2.078l-0.004-0.045q-0.042-0.448-0.051-0.897v0c0-0.054 0-0.108 0-0.158s0-0.102 0-0.152v0q0-0.12 0-0.239v0q0-0.117 0-0.233v0q0-0.233 0.036-0.463v0c0.078-0.778 0.225-1.489 0.436-2.171l-0.021 0.078 0.078-0.218v-0.036l0.060-0.173 0.039-0.090 0.051-0.144 0.048-0.126 0.039-0.099c0.045-0.114 0.093-0.224 0.141-0.335q0.182-0.422 0.398-0.822c0.355-0.656 0.736-1.221 1.164-1.745l-0.016 0.020 0.138-0.164 0.018-0.021 0.126-0.152 0.039-0.045 0.114-0.129 0.057-0.063 0.108-0.114 0.239-0.248q0.338-0.299 0.697-0.598c0.536-0.446 1.135-0.854 1.772-1.2l0.058-0.029q0.389-0.209 0.798-0.386l0.323-0.135 0.164-0.063 0.075-0.036 0.173-0.063 0.051-0.018 0.191-0.063h0.030l0.209-0.066c0.604-0.191 1.315-0.337 2.047-0.412l0.046-0.004q0.218-0.021 0.443-0.033v0h1.295q0.221 0 0.437 0.033v0c0.763 0.077 1.46 0.219 2.129 0.424l-0.078-0.020q0.416 0.126 0.819 0.281 0.206 0.081 0.41 0.167 0.413 0.179 0.807 0.392v0c0.657 0.355 1.223 0.736 1.748 1.164l-0.020-0.016 0.161 0.135 0.024 0.021 0.141 0.111 0.066 0.057 0.105 0.093q0.224 0.203 0.437 0.422v0q0.314 0.32 0.598 0.664c0.442 0.526 0.846 1.113 1.191 1.737l0.029 0.057v0.024l0.099 0.188 0.069 0.138 0.036 0.069 0.084 0.176v0.027l0.090 0.197q0.063 0.144 0.123 0.299v0zM21.816 4.676c0.012-0 0.027-0 0.042-0 0.389 0 0.751 0.112 1.058 0.304l-0.008-0.005c0.473 0.287 0.879 0.628 1.227 1.020l0.005 0.005 0.027 0.218c0 0.374-0.371 0.616-0.637 0.843l-0.431 0.263c-0.553-0.457-1.173-0.874-1.832-1.226l-0.060-0.029q0.057-0.344 0.132-0.682c0.096-0.293 0.182-0.601 0.478-0.712zM17.070 3.352c0.407-0.242 1.067-0.155 1.537-0.108 0.102 0 0.2 0.027 0.299 0.045 0.318 0.072 0.598 0.183 0.856 0.328l-0.016-0.008 0.111 0.191c0.138 0.347-0.105 0.712-0.266 1.023l-0.32 0.443c-0.652-0.207-1.414-0.362-2.201-0.436l-0.044-0.003q-0.072-0.314-0.129-0.634c-0.022-0.076-0.035-0.162-0.035-0.252 0-0.224 0.078-0.429 0.209-0.59l-0.001 0.002zM12.146 3.905c0.29-0.293 0.663-0.504 1.080-0.595l0.014-0.003c0.35-0.091 0.753-0.143 1.167-0.143 0.115 0 0.23 0.004 0.343 0.012l-0.015-0.001 0.173 0.135c0.26 0.269 0.173 0.697 0.146 1.047-0.039 0.155-0.075 0.299-0.114 0.469-0.847 0.078-1.625 0.238-2.37 0.473l0.079-0.022q-0.185-0.263-0.359-0.535c-0.129-0.263-0.278-0.55-0.146-0.837zM8.644 5.28c0.368-0.274 0.795-0.498 1.254-0.652l0.032-0.009 0.212 0.057c0.344 0.149 0.428 0.577 0.535 0.912 0.024 0.158 0.051 0.32 0.075 0.478-0.753 0.401-1.403 0.844-1.999 1.347l0.017-0.014q-0.272-0.17-0.535-0.353c-0.227-0.188-0.475-0.407-0.463-0.706 0.102-0.413 0.526-0.774 0.873-1.059zM5.056 8.967c0.262-0.436 0.574-0.808 0.937-1.126l0.005-0.005 0.218-0.027c0.374 0 0.616 0.371 0.843 0.637l0.257 0.419c-0.455 0.55-0.871 1.166-1.223 1.821l-0.029 0.060q-0.326-0.054-0.646-0.126c-0.299-0.087-0.598-0.182-0.703-0.478-0-0.009-0-0.019-0-0.029 0-0.425 0.124-0.821 0.337-1.155l-0.005 0.009zM3.262 13.402c0.075-0.448 0.215-0.85 0.411-1.217l-0.010 0.021 0.191-0.111c0.347-0.138 0.712 0.105 1.023 0.266l0.401 0.299c-0.219 0.665-0.385 1.443-0.466 2.247l-0.004 0.047q-0.299 0.069-0.616 0.126c-0.299 0.030-0.619 0.057-0.831-0.173-0.236-0.398-0.167-1.035-0.111-1.501zM3.911 19.839c-0.295-0.298-0.506-0.678-0.595-1.104l-0.003-0.014c-0.089-0.347-0.141-0.744-0.141-1.154 0-0.12 0.004-0.239 0.013-0.357l-0.001 0.016 0.135-0.173c0.269-0.26 0.697-0.173 1.047-0.146l0.452 0.108c0.078 0.856 0.24 1.644 0.479 2.396l-0.022-0.079c-0.167 0.12-0.341 0.236-0.514 0.347-0.275 0.144-0.562 0.293-0.849 0.161zM6.327 24.199c-0.401-0.102-0.762-0.517-1.047-0.867-0.271-0.366-0.494-0.789-0.646-1.245l-0.009-0.032 0.063-0.212c0.146-0.344 0.577-0.428 0.897-0.535l0.457-0.072c0.403 0.751 0.846 1.398 1.35 1.993l-0.013-0.016c-0.111 0.176-0.224 0.35-0.344 0.52-0.185 0.23-0.392 0.478-0.709 0.463zM10.178 27.273c-0.386 0.057-0.849-0.158-1.229-0.365-0.428-0.262-0.793-0.573-1.104-0.933l-0.005-0.006-0.027-0.218c0-0.374 0.371-0.616 0.637-0.843l0.401-0.245c0.565 0.468 1.197 0.894 1.871 1.253l0.061 0.029q-0.054 0.299-0.123 0.625c-0.090 0.287-0.185 0.595-0.481 0.703zM14.962 28.639c-0.371 0.221-0.948 0.17-1.402 0.123-0.492-0.078-0.935-0.228-1.34-0.439l0.024 0.011-0.108-0.191c-0.138-0.347 0.105-0.712 0.266-1.023l0.281-0.389c0.676 0.215 1.466 0.374 2.281 0.446l0.042 0.003q0.072 0.299 0.126 0.625c0.036 0.299 0.066 0.622-0.164 0.837zM19.878 28.071c-0.263 0.353-0.84 0.529-1.286 0.661-0.286 0.071-0.614 0.111-0.951 0.111-0.126 0-0.251-0.006-0.374-0.017l0.016 0.001-0.173-0.135c-0.263-0.269-0.173-0.697-0.146-1.047 0.039-0.158 0.078-0.317 0.114-0.475 0.846-0.084 1.62-0.249 2.36-0.489l-0.079 0.022q0.185 0.26 0.359 0.532c0.146 0.263 0.299 0.55 0.164 0.837zM23.254 26.776c-0.332 0.243-0.717 0.441-1.131 0.575l-0.029 0.008-0.212-0.057c-0.344-0.149-0.428-0.577-0.535-0.912-0.024-0.164-0.051-0.326-0.078-0.487 0.723-0.392 1.347-0.819 1.922-1.303l-0.017 0.014q0.275 0.17 0.541 0.359c0.23 0.188 0.478 0.395 0.466 0.712-0.102 0.425-0.562 0.801-0.921 1.094zM26.785 23.224l-0.021 0.036c-0.224 0.353-0.489 0.655-0.795 0.91l-0.006 0.005-0.218 0.027c-0.374 0-0.616-0.371-0.843-0.637l-0.257-0.419c0.481-0.579 0.915-1.229 1.28-1.921l0.029-0.061q0.299 0.054 0.619 0.12c0.284 0.087 0.598 0.182 0.703 0.478 0.066 0.469-0.266 1.047-0.49 1.462zM28.714 18.563c0 0.030 0 0.060 0 0.090-0.074 0.39-0.202 0.738-0.377 1.056l0.009-0.018-0.191 0.111c-0.347 0.138-0.712-0.108-1.023-0.266l-0.392-0.284c0.208-0.662 0.363-1.435 0.433-2.233l0.003-0.043q0.299-0.069 0.598-0.123c0.299-0.030 0.619-0.057 0.831 0.173 0.242 0.407 0.155 1.067 0.108 1.537zM28.795 14.714l-0.135 0.173c-0.269 0.26-0.697 0.173-1.047 0.146l-0.457-0.111c-0.083-0.853-0.247-1.634-0.489-2.381l0.022 0.079c0.17-0.12 0.341-0.236 0.514-0.347 0.156-0.122 0.356-0.196 0.572-0.196 0.093 0 0.184 0.014 0.269 0.039l-0.007-0.002c0.35 0.263 0.526 0.831 0.658 1.271 0.073 0.29 0.114 0.624 0.114 0.967 0 0.127-0.006 0.253-0.017 0.377l0.001-0.016z"></path>
</svg>
