<!-- Generated by IcoMoon.io -->
<svg version="1.1" xmlns="http://www.w3.org/2000/svg" width="32" height="32" viewBox="0 0 32 32">
<path d="M9.76 7.712l-9.344 9.344c-0.576 0.576-0.576 1.472 0 2.048s1.472 0.576 2.048 0l9.344-9.344-2.048-2.048zM16 18.048l9.344-9.344c0.576-0.576 0.576-1.472 0-2.048v0c-0.576-0.576-1.472-0.576-2.048 0l-9.344 9.344 2.048 2.048zM14.976 8.736c0.576 0.576 1.472 0.576 2.048 0l0.064-0.064c0.576-0.576 0.576-1.472 0-2.048l-1.088-1.056 3.104-3.104c0.576-0.576 0.576-1.472 0-2.048s-1.472-0.576-2.048 0l-3.104 3.104-1.056-1.056c-0.576-0.576-1.472-0.576-2.048 0l-0.064 0.064c-0.576 0.576-0.576 1.472 0 2.048l4.192 4.16zM14.944 23.296l0.064-0.064c0.576-0.576 0.576-1.472 0-2.048l-4.224-4.16c-0.576-0.576-1.472-0.576-2.048 0l-0.064 0.064c-0.576 0.576-0.576 1.472 0 2.048l1.056 1.056-3.104 3.104c-0.576 0.576-0.576 1.472 0 2.048s1.472 0.576 2.048 0l3.104-3.104 1.056 1.056c0.608 0.576 1.536 0.576 2.112 0zM31.584 12.896c-0.576-0.576-1.472-0.576-2.048 0l-7.296 7.296-1.056-1.056c-0.576-0.576-1.472-0.576-2.048 0s-0.576 1.472 0 2.048l4.192 4.192c0.576 0.576 1.472 0.576 2.048 0s0.576-1.472 0-2.048l-1.056-1.056 7.296-7.296c0.512-0.608 0.512-1.536-0.032-2.080zM12.896 29.536c-0.576 0.576-0.576 1.472 0 2.048s1.472 0.576 2.048 0l5.216-5.216-2.080-2.048-5.184 5.216z"></path>
</svg>
