<!-- Generated by IcoMoon.io -->
<svg version="1.1" xmlns="http://www.w3.org/2000/svg" width="32" height="32" viewBox="0 0 32 32">
<path d="M25.010 2.431c0.152 0 0.425 0.030 0.669 0.273l3.616 3.616c0.365 0.365 0.365 0.972 0 1.337l-4.589 4.589h-4.953v-4.953l4.589-4.589c0.213-0.243 0.517-0.273 0.669-0.273zM7.020 2.431c0.152 0 0.425 0.030 0.669 0.273l4.558 4.589v4.953h-4.953l-4.589-4.558c-0.365-0.365-0.365-0.972 0-1.337l3.647-3.647c0.213-0.243 0.517-0.273 0.669-0.273zM24.707 19.753l4.589 4.589c0.365 0.365 0.365 0.972 0 1.337l-3.616 3.616c-0.243 0.243-0.517 0.273-0.669 0.273s-0.425-0.030-0.669-0.273l-4.589-4.589v-4.953h4.953zM12.247 19.753v4.953l-4.558 4.589c-0.243 0.243-0.517 0.273-0.669 0.273s-0.425-0.030-0.669-0.273l-3.647-3.616c-0.365-0.365-0.365-0.972 0-1.337l4.589-4.589h4.953zM25.010 0c-0.851 0-1.732 0.334-2.401 1.003l-5.288 5.288v8.418h8.418l5.257-5.318c1.307-1.307 1.307-3.464 0-4.771l-3.616-3.616c-0.669-0.669-1.519-1.003-2.37-1.003v0zM7.020 0c-0.851 0-1.732 0.334-2.401 1.003l-3.616 3.616c-1.307 1.307-1.307 3.464 0 4.771l5.288 5.288h8.418v-8.387l-5.318-5.288c-0.669-0.669-1.519-1.003-2.37-1.003v0zM25.709 17.322h-8.387v8.418l5.288 5.257c0.669 0.669 1.519 1.003 2.401 1.003s1.732-0.334 2.401-1.003l3.586-3.616c1.307-1.307 1.307-3.464 0-4.771l-5.288-5.288zM14.678 17.322h-8.387l-5.288 5.288c-1.307 1.307-1.307 3.464 0 4.771l3.616 3.616c0.669 0.669 1.519 1.003 2.401 1.003s1.732-0.334 2.401-1.003l5.288-5.288v-8.387h-0.030z"></path>
</svg>
