<!-- Generated by IcoMoon.io -->
<svg version="1.1" xmlns="http://www.w3.org/2000/svg" width="22" height="32" viewBox="0 0 22 32">
<path d="M20.516 14.898c-1.117-1.738-5.773-7.635-7.511-13.501-0.248-0.931-1.148-1.397-1.862-1.397-0.683 0-1.552 0.466-1.862 1.397-1.769 5.866-6.425 11.763-7.511 13.501s-1.769 3.787-1.769 5.99c0 6.145 4.966 11.143 11.143 11.143 6.145 0 11.143-4.966 11.143-11.143-0.031-2.204-0.683-4.252-1.769-5.99zM11.143 29.827c-4.935 0-8.97-4.004-8.97-8.939 0-1.645 0.497-3.321 1.428-4.811 0.186-0.279 0.497-0.714 0.838-1.21 1.8-2.545 5.059-7.201 6.704-12.074 1.645 4.904 4.904 9.529 6.704 12.074 0.372 0.528 0.683 0.962 0.838 1.241 0.931 1.459 1.428 3.135 1.428 4.811-0.031 4.904-4.035 8.908-8.97 8.908zM11.143 25.327c-2.452 0-4.469-1.986-4.469-4.469 0-1.024 0.404-1.893 0.714-2.421 0.124-0.186 0.435-0.621 0.714-1.055 0.341-0.497 0.217-1.148-0.279-1.521-0.497-0.341-1.179-0.217-1.521 0.279-0.341 0.466-0.621 0.869-0.776 1.117-0.497 0.776-1.055 2.049-1.055 3.569 0 3.662 2.98 6.642 6.642 6.642 0.59 0 1.086-0.497 1.086-1.086s-0.466-1.055-1.055-1.055z"></path>
</svg>
