<!-- Generated by IcoMoon.io -->
<svg version="1.1" xmlns="http://www.w3.org/2000/svg" width="32" height="32" viewBox="0 0 32 32">
<path d="M32 16.016v0c0 0.591-0.498 1.088-1.088 1.088h-7.712l4.634 5.411c0.435 0.435 0.435 1.12 0 1.555v0c-0.435 0.435-1.151 0.466-1.586 0l-5.878-6.966h-3.265v3.265l6.997 5.878c0.435 0.435 0.435 1.151 0 1.586v0c-0.435 0.435-1.12 0.404-1.555 0l-5.442-4.634v7.743c0 0.591-0.498 1.088-1.088 1.088v0c-0.591 0-1.088-0.498-1.088-1.088v-7.743l-5.411 4.603c-0.435 0.435-1.12 0.435-1.555 0v0c-0.435-0.435-0.466-1.151 0-1.586l6.966-5.846v-3.265h-2.737l-6.406 6.966c-0.435 0.435-1.151 0.435-1.586 0v0c-0.435-0.435-0.404-1.12 0-1.555l5.162-5.411h-8.272c-0.591 0-1.088-0.498-1.088-1.088v0c0-0.622 0.498-1.088 1.088-1.088h8.272l-5.162-5.411c-0.435-0.435-0.435-1.12 0-1.555v0c0.435-0.435 1.151-0.466 1.586 0l6.406 6.966h2.737v-3.017l-6.997-6.126c-0.435-0.435-0.435-1.151 0-1.586v0c0.435-0.435 1.12-0.404 1.555 0l5.442 4.882v-7.992c0-0.591 0.466-1.088 1.088-1.088v0c0.591 0 1.088 0.498 1.088 1.088v7.992l5.411-4.882c0.435-0.435 1.12-0.435 1.555 0v0c0.435 0.435 0.466 1.151 0 1.586l-6.966 6.126v3.017h3.265l5.878-6.997c0.435-0.435 1.151-0.435 1.586 0v0c0.435 0.435 0.404 1.12 0 1.555l-4.634 5.442h7.743c0.591 0 1.057 0.466 1.057 1.088z"></path>
</svg>
