<!-- Generated by IcoMoon.io -->
<svg version="1.1" xmlns="http://www.w3.org/2000/svg" width="35" height="32" viewBox="0 0 35 32">
<path d="M23.261 17.703c0 0.225-0.193 0.514-0.418 0.546l-2.827 0.45c-0.161 0.482-0.353 0.932-0.578 1.382 0.514 0.739 1.060 1.414 1.639 2.088 0.064 0.096 0.128 0.225 0.128 0.353s-0.032 0.257-0.128 0.353c-0.353 0.482-2.41 2.699-2.924 2.699-0.161 0-0.257-0.064-0.386-0.128l-2.088-1.639c-0.45 0.225-0.9 0.418-1.414 0.578-0.096 0.932-0.193 1.928-0.418 2.827-0.064 0.257-0.289 0.45-0.546 0.45h-3.373c-0.257 0-0.514-0.193-0.546-0.45l-0.418-2.763c-0.482-0.161-0.932-0.353-1.349-0.578l-2.153 1.606c-0.096 0.096-0.225 0.128-0.353 0.128-0.161 0-0.257-0.064-0.386-0.161-0.482-0.45-2.602-2.378-2.602-2.892 0-0.128 0.064-0.225 0.128-0.353 0.514-0.675 1.060-1.349 1.606-2.056-0.257-0.482-0.482-0.996-0.643-1.478l-2.763-0.45c-0.257-0.096-0.45-0.321-0.45-0.578v-3.373c0-0.225 0.193-0.514 0.418-0.546l2.827-0.45c0.161-0.482 0.353-0.932 0.578-1.382-0.514-0.739-1.060-1.414-1.639-2.088-0.064-0.096-0.128-0.225-0.128-0.353s0.032-0.257 0.128-0.353c0.353-0.482 2.41-2.699 2.924-2.699 0.161 0 0.257 0.064 0.386 0.128l2.088 1.639c0.45-0.225 0.9-0.418 1.414-0.578 0.096-0.9 0.193-1.896 0.418-2.795 0.064-0.257 0.289-0.45 0.546-0.45h3.373c0.257 0 0.514 0.193 0.546 0.45l0.418 2.763c0.482 0.161 0.932 0.353 1.349 0.578l2.153-1.606c0.096-0.096 0.225-0.128 0.353-0.128 0.161 0 0.257 0.064 0.386 0.161 0.482 0.45 2.602 2.41 2.602 2.892 0 0.129-0.064 0.225-0.128 0.353-0.514 0.707-1.060 1.349-1.574 2.056 0.225 0.482 0.45 0.996 0.61 1.478l2.763 0.418c0.257 0.064 0.45 0.289 0.45 0.546v3.406zM11.631 10.217c-3.181 0-5.783 2.602-5.783 5.783s2.602 5.783 5.783 5.783 5.783-2.602 5.783-5.783c0-3.213-2.602-5.783-5.783-5.783zM34.859 7.968c0 0.257-2.345 0.514-2.699 0.578-0.161 0.353-0.321 0.643-0.546 0.932 0.161 0.353 0.932 2.185 0.932 2.506 0 0.064-0.032 0.096-0.064 0.129-0.225 0.129-2.153 1.285-2.249 1.285-0.225 0-1.606-1.831-1.767-2.088-0.193 0.032-0.353 0.032-0.546 0.032s-0.353-0.032-0.546-0.032c-0.193 0.257-1.542 2.088-1.767 2.088-0.096 0-2.024-1.157-2.249-1.285-0.064-0.032-0.064-0.096-0.064-0.129 0-0.321 0.771-2.153 0.932-2.506-0.225-0.289-0.386-0.61-0.546-0.932-0.353-0.032-2.699-0.289-2.699-0.578v-2.538c0-0.257 2.345-0.514 2.699-0.578 0.161-0.321 0.321-0.643 0.546-0.932-0.161-0.353-0.932-2.185-0.932-2.506 0-0.032 0.032-0.096 0.064-0.129 0.225-0.096 2.153-1.285 2.249-1.285 0.225 0 1.606 1.799 1.767 2.056 0.193-0.032 0.353-0.032 0.546-0.032s0.353 0.032 0.546 0.032c0.514-0.707 1.060-1.414 1.671-2.024l0.096-0.032c0.096 0 2.024 1.157 2.249 1.285 0.064 0.032 0.064 0.096 0.064 0.129 0 0.321-0.771 2.153-0.932 2.506 0.225 0.289 0.386 0.61 0.546 0.932 0.353 0.032 2.699 0.289 2.699 0.578v2.538zM34.859 26.57c0 0.257-2.345 0.514-2.699 0.578-0.161 0.353-0.321 0.643-0.546 0.932 0.161 0.353 0.932 2.185 0.932 2.506 0 0.064-0.032 0.096-0.064 0.128-0.225 0.128-2.153 1.285-2.249 1.285-0.225 0-1.606-1.831-1.767-2.088-0.193 0.032-0.353 0.032-0.546 0.032s-0.353-0.032-0.546-0.032c-0.193 0.257-1.542 2.088-1.767 2.088-0.096 0-2.024-1.157-2.249-1.285-0.064-0.032-0.064-0.096-0.064-0.128 0-0.321 0.771-2.153 0.932-2.506-0.225-0.289-0.386-0.61-0.546-0.932-0.353-0.032-2.699-0.289-2.699-0.578v-2.538c0-0.257 2.345-0.514 2.699-0.578 0.161-0.321 0.321-0.643 0.546-0.932-0.161-0.353-0.932-2.185-0.932-2.506 0-0.032 0.032-0.096 0.064-0.128 0.225-0.096 2.153-1.285 2.249-1.285 0.225 0 1.606 1.799 1.767 2.056 0.193-0.032 0.353-0.032 0.546-0.032s0.353 0.032 0.546 0.032c0.514-0.707 1.060-1.414 1.671-2.024l0.096-0.032c0.096 0 2.024 1.157 2.249 1.285 0.064 0.032 0.064 0.096 0.064 0.128 0 0.321-0.771 2.153-0.932 2.506 0.225 0.289 0.386 0.61 0.546 0.932 0.353 0.032 2.699 0.289 2.699 0.578v2.538zM27.888 4.369c-1.285 0-2.313 1.060-2.313 2.313 0 1.285 1.060 2.313 2.313 2.313 1.285 0 2.313-1.060 2.313-2.313 0.032-1.285-1.028-2.313-2.313-2.313zM27.888 22.972c-1.285 0-2.313 1.060-2.313 2.313 0 1.285 1.060 2.313 2.313 2.313 1.285 0 2.313-1.060 2.313-2.313 0.032-1.285-1.028-2.313-2.313-2.313z"></path>
</svg>
