<!-- Generated by IcoMoon.io -->
<svg version="1.1" xmlns="http://www.w3.org/2000/svg" width="37" height="32" viewBox="0 0 37 32">
<path d="M12.155 22.295c-0.248 0-0.527-0.093-0.713-0.248h-0.062c-0.062-0.031-0.124-0.062-0.155-0.093l-10.636-6.419c-0.279-0.155-0.465-0.434-0.558-0.744-0.062-0.31-0.031-0.62 0.124-0.899 0.124-0.279 0.31-0.496 0.527-0.651l3.969-2.295-3.132-1.798c-0.217-0.124-0.372-0.31-0.465-0.527v-0.031l-0.031-0.031c-0.062-0.062-0.124-0.155-0.155-0.217-0.186-0.279-0.248-0.589-0.155-0.899s0.279-0.558 0.558-0.744l10.543-6.078c0.186-0.093 0.372-0.155 0.589-0.155h0.062c0.093-0.031 0.186-0.031 0.279-0.031 0.186 0 0.403 0.062 0.558 0.155l4.806 2.605 5.271-3.039c0.155-0.093 0.341-0.155 0.558-0.155 0.124 0 0.279 0.031 0.403 0.062h0.062c0.155 0.031 0.279 0.062 0.403 0.124l10.698 5.581c0.093 0.062 0.186 0.124 0.279 0.186l0.031 0.031h0.031c0.248 0.093 0.434 0.279 0.558 0.496 0.155 0.279 0.217 0.589 0.124 0.899-0.062 0.31-0.279 0.589-0.558 0.744l-4.155 2.512 4.372 2.388c0.434 0.248 0.682 0.744 0.62 1.24 0 0.465-0.217 0.868-0.589 1.085l-10.977 6.574c-0.155 0.093-0.31 0.155-0.465 0.155-0.155 0.031-0.279 0.062-0.403 0.062-0.217 0-0.403-0.062-0.589-0.155l-5.519-3.194-5.488 3.318c-0.186 0.124-0.403 0.186-0.62 0.186zM3.442 14.45l8.713 5.24 3.752-2.264-8.837-5.085-3.628 2.109zM20.62 17.395l3.845 2.233 8.899-5.364-3.969-2.171-8.775 5.302zM9.457 10.946l8.744 5.054 8.713-5.24-8.806-4.806-8.651 4.992zM4.124 7.845l2.946 1.705 8.558-4.961-3.039-1.643-8.465 4.899zM20.558 4.558l8.775 4.744 3.566-2.171-8.837-4.589-3.504 2.015zM18.202 32c-0.248 0-1.054-0.31-1.209-0.403l-10.109-5.488c-0.279-0.155-0.496-0.403-0.589-0.713v-0.031l-0.031-0.031c-0.186-0.248-0.279-0.527-0.279-0.837v-2.636c0-0.713 0.527-1.302 1.209-1.302s1.209 0.589 1.209 1.302v2.171l8.589 4.682v-7.070c0-0.713 0.527-1.302 1.209-1.302s1.209 0.589 1.209 1.302v7.101l8.651-4.713v-2.171c0-0.713 0.527-1.302 1.209-1.302s1.209 0.589 1.209 1.302v2.636c0 0.279-0.093 0.558-0.248 0.775l-0.031 0.031v0.031c-0.093 0.341-0.31 0.62-0.62 0.775l-10.109 5.519c-0.155 0.062-1.023 0.372-1.271 0.372z"></path>
</svg>
