<!-- Generated by IcoMoon.io -->
<svg version="1.1" xmlns="http://www.w3.org/2000/svg" width="32" height="32" viewBox="0 0 32 32">
<path d="M15.968 6.6l3.509-3.509 2.318 2.318-5.827 5.827-5.859-5.827 2.318-2.318 3.541 3.509zM3.091 12.427l2.318-2.318 5.827 5.827-5.859 5.859-2.318-2.318 3.509-3.509-3.477-3.541zM25.304 15.968l3.509 3.509-2.318 2.318-5.795-5.827 5.827-5.827 2.318 2.318-3.541 3.509zM10.109 26.527l5.827-5.827 5.827 5.827-2.318 2.318-3.477-3.509-3.541 3.509-2.318-2.318zM1.738 11.171l-1.159-1.159c-0.644-0.644-0.644-1.674 0-2.318v0c0.644-0.644 1.674-0.644 2.318 0l1.159 1.159-2.318 2.318zM29.006 24.306l-1.159-1.159 2.318-2.318 1.159 1.159c0.644 0.644 0.644 1.674 0 2.318v0c-0.644 0.644-1.674 0.644-2.318 0zM11.139 30.197l-1.159 1.191c-0.644 0.644-1.674 0.644-2.318 0v0c-0.644-0.644-0.644-1.674 0-2.318l1.159-1.159 2.318 2.286zM24.241 2.93l-1.159 1.159-2.318-2.318 1.159-1.159c0.644-0.644 1.674-0.644 2.318 0v0c0.644 0.644 0.644 1.674 0 2.318zM1.738 20.797l-1.159 1.159c-0.644 0.644-0.644 1.674 0 2.318v0c0.644 0.644 1.674 0.644 2.318 0l1.159-1.159-2.318-2.318zM29.006 7.694l-1.159 1.159 2.318 2.318 1.159-1.159c0.644-0.644 0.644-1.674 0-2.318v0c-0.644-0.644-1.674-0.644-2.318 0zM11.139 1.771l-1.159-1.159c-0.644-0.644-1.674-0.644-2.318 0v0c-0.644 0.644-0.644 1.674 0 2.318l1.159 1.159 2.318-2.318zM24.241 29.038l-1.159-1.159-2.318 2.318 1.159 1.159c0.644 0.644 1.674 0.644 2.318 0v0c0.644-0.612 0.644-1.674 0-2.318z"></path>
</svg>
